<svg width="59" height="59" viewBox="0 0 59 59" fill="none" xmlns="http://www.w3.org/2000/svg">
<path d="M29.5 4.9165C24.6378 4.9165 19.8849 6.35829 15.8422 9.05954C11.7995 11.7608 8.64859 15.6002 6.78793 20.0922C4.92728 24.5842 4.44045 29.5271 5.389 34.2958C6.33755 39.0645 8.67889 43.4448 12.1169 46.8829C15.555 50.3209 19.9353 52.6623 24.704 53.6108C29.4727 54.5594 34.4156 54.0725 38.9076 52.2119C43.3996 50.3512 47.239 47.2003 49.9403 43.1576C52.6415 39.1149 54.0833 34.362 54.0833 29.4998C54.0833 26.2715 53.4474 23.0748 52.212 20.0922C50.9766 17.1096 49.1658 14.3996 46.883 12.1168C44.6002 9.83402 41.8902 8.02323 38.9076 6.7878C35.925 5.55237 32.7283 4.9165 29.5 4.9165ZM29.5 49.1665C25.6103 49.1665 21.8079 48.0131 18.5738 45.8521C15.3396 43.6911 12.8189 40.6196 11.3303 37.0259C9.84182 33.4323 9.45235 29.478 10.2112 25.6631C10.97 21.8481 12.8431 18.3438 15.5935 15.5934C18.344 12.843 21.8482 10.9699 25.6632 10.2111C29.4782 9.45222 33.4325 9.84168 37.0261 11.3302C40.6197 12.8187 43.6912 15.3395 45.8522 18.5736C48.0132 21.8078 49.1666 25.6101 49.1666 29.4998C49.1666 34.7158 47.0946 39.7181 43.4064 43.4063C39.7182 47.0945 34.7159 49.1665 29.5 49.1665Z" fill="#FF9C08"/>
<path d="M29.5 41.7917C30.8577 41.7917 31.9583 40.691 31.9583 39.3333C31.9583 37.9756 30.8577 36.875 29.5 36.875C28.1423 36.875 27.0416 37.9756 27.0416 39.3333C27.0416 40.691 28.1423 41.7917 29.5 41.7917Z" fill="#FF9C08"/>
<path d="M29.5 17.2085C28.848 17.2085 28.2227 17.4675 27.7617 17.9285C27.3006 18.3896 27.0416 19.0148 27.0416 19.6668V31.9585C27.0416 32.6105 27.3006 33.2358 27.7617 33.6968C28.2227 34.1578 28.848 34.4168 29.5 34.4168C30.152 34.4168 30.7772 34.1578 31.2383 33.6968C31.6993 33.2358 31.9583 32.6105 31.9583 31.9585V19.6668C31.9583 19.0148 31.6993 18.3896 31.2383 17.9285C30.7772 17.4675 30.152 17.2085 29.5 17.2085Z" fill="#FF9C08"/>
</svg>
