<svg width="32" height="32" viewBox="0 0 32 32" fill="none" xmlns="http://www.w3.org/2000/svg">
<path d="M16 20C18.2091 20 20 18.2091 20 16C20 13.7909 18.2091 12 16 12C13.7909 12 12 13.7909 12 16C12 18.2091 13.7909 20 16 20Z" fill="#5CB226"/>
<path d="M27 5.66667H22.7733L21.12 3.86667C20.6267 3.32 19.9067 3 19.16 3H13.5067C12.76 3 12.04 3.32 11.5333 3.86667L9.89333 5.66667H5.66667C4.2 5.66667 3 6.86667 3 8.33333V24.3333C3 25.8 4.2 27 5.66667 27H27C28.4667 27 29.6667 25.8 29.6667 24.3333V8.33333C29.6667 6.86667 28.4667 5.66667 27 5.66667ZM16.3333 23C12.6533 23 9.66667 20.0133 9.66667 16.3333C9.66667 12.6533 12.6533 9.66667 16.3333 9.66667C20.0133 9.66667 23 12.6533 23 16.3333C23 20.0133 20.0133 23 16.3333 23Z" fill="#5CB226"/>
</svg>
