<svg width="35" height="35" viewBox="0 0 35 35" fill="none" xmlns="http://www.w3.org/2000/svg">
<path d="M32.9 23.7711L21.7146 5.22108C21.2623 4.51352 20.6391 3.93122 19.9026 3.52786C19.166 3.12451 18.3398 2.91309 17.5 2.91309C16.6602 2.91309 15.834 3.12451 15.0974 3.52786C14.3608 3.93122 13.7377 4.51352 13.2854 5.22108L2.09998 23.7711C1.70485 24.4297 1.49009 25.1808 1.47729 25.9488C1.46449 26.7168 1.65411 27.4746 2.02707 28.1461C2.45827 28.9019 3.0824 29.5297 3.83569 29.9652C4.58898 30.4008 5.44442 30.6286 6.31457 30.6252H28.6854C29.5498 30.6345 30.4014 30.4155 31.1542 29.9905C31.9069 29.5654 32.5343 28.9494 32.9729 28.2044C33.3568 27.526 33.5525 26.7573 33.5397 25.9778C33.5268 25.1984 33.306 24.4365 32.9 23.7711ZM17.5 24.7919C17.2116 24.7919 16.9296 24.7064 16.6898 24.5461C16.45 24.3859 16.263 24.1581 16.1527 23.8917C16.0423 23.6252 16.0134 23.332 16.0697 23.0491C16.1259 22.7662 16.2648 22.5063 16.4688 22.3024C16.6727 22.0984 16.9326 21.9595 17.2155 21.9033C17.4984 21.847 17.7916 21.8759 18.0581 21.9863C18.3245 22.0966 18.5523 22.2836 18.7125 22.5234C18.8728 22.7632 18.9583 23.0451 18.9583 23.3336C18.9583 23.7204 18.8047 24.0913 18.5312 24.3648C18.2577 24.6383 17.8868 24.7919 17.5 24.7919ZM18.9583 18.9586C18.9583 19.3454 18.8047 19.7163 18.5312 19.9898C18.2577 20.2633 17.8868 20.4169 17.5 20.4169C17.1132 20.4169 16.7423 20.2633 16.4688 19.9898C16.1953 19.7163 16.0416 19.3454 16.0416 18.9586V13.1252C16.0416 12.7385 16.1953 12.3675 16.4688 12.094C16.7423 11.8206 17.1132 11.6669 17.5 11.6669C17.8868 11.6669 18.2577 11.8206 18.5312 12.094C18.8047 12.3675 18.9583 12.7385 18.9583 13.1252V18.9586Z" fill="#FF9C08"/>
</svg>
