<?xml version="1.0" encoding="utf-8"?>
<!-- Generator: Adobe Illustrator 26.0.2, SVG Export Plug-In . SVG Version: 6.00 Build 0)  -->
<svg version="1.1" id="Layer_1" xmlns="http://www.w3.org/2000/svg" xmlns:xlink="http://www.w3.org/1999/xlink" x="0px" y="0px"
	 viewBox="0 0 64 64" style="enable-background:new 0 0 64 64;" xml:space="preserve">
<style type="text/css">
	.st0{fill:#5AAD26;}
	.st1{fill:#FFFFFF;}
</style>
<rect x="0" class="st0" width="64" height="64"/>
<path class="st1" d="M32,57L21.81,46.81l2.75-2.75l5.56,5.56V33.88H14.38l5.25,5.25l-2.75,2.75L7,32l9.94-9.94l2.75,2.75l-5.31,5.31
	h15.75V14.38l-5.25,5.25l-2.75-2.75L32,7l9.88,9.88l-2.75,2.75l-5.25-5.25v15.75h15.75l-5.25-5.25l2.75-2.75L57,32l-9.88,9.88
	l-2.75-2.75l5.25-5.25H33.88v15.75l5.56-5.56l2.75,2.75L32,57z"/>
</svg>
