<svg width="32" height="32" viewBox="0 0 32 32" fill="none" xmlns="http://www.w3.org/2000/svg">
<path d="M16 6C17.9778 6 19.9112 6.58649 21.5557 7.6853C23.2002 8.78412 24.4819 10.3459 25.2388 12.1732C25.9957 14.0004 26.1937 16.0111 25.8078 17.9509C25.422 19.8907 24.4696 21.6725 23.0711 23.0711C21.6725 24.4696 19.8907 25.422 17.9509 25.8079C16.0111 26.1937 14.0004 25.9957 12.1732 25.2388C10.3459 24.4819 8.78411 23.2002 7.6853 21.5557C6.58649 19.9112 6 17.9778 6 16C6 13.3478 7.05356 10.8043 8.92893 8.92893C10.8043 7.05357 13.3478 6 16 6ZM16 24C17.5822 24 19.129 23.5308 20.4446 22.6518C21.7602 21.7727 22.7855 20.5233 23.391 19.0615C23.9965 17.5997 24.155 15.9911 23.8463 14.4393C23.5376 12.8874 22.7757 11.462 21.6569 10.3431C20.538 9.22433 19.1126 8.4624 17.5607 8.15372C16.0089 7.84504 14.4003 8.00346 12.9385 8.60896C11.4767 9.21447 10.2273 10.2398 9.34824 11.5554C8.46919 12.871 8 14.4177 8 16C8 18.1217 8.84285 20.1566 10.3431 21.6569C11.8434 23.1571 13.8783 24 16 24Z" fill="#5CB226"/>
<path d="M12.71 13.2902L16 16.5902L19.29 13.2902C19.4783 13.1019 19.7337 12.9961 20 12.9961C20.2663 12.9961 20.5217 13.1019 20.71 13.2902C20.8983 13.4785 21.0041 13.7339 21.0041 14.0002C21.0041 14.2665 20.8983 14.5219 20.71 14.7102L16.71 18.7102C16.617 18.8039 16.5064 18.8783 16.3846 18.9291C16.2627 18.9798 16.132 19.006 16 19.006C15.868 19.006 15.7373 18.9798 15.6154 18.9291C15.4936 18.8783 15.383 18.8039 15.29 18.7102L11.29 14.7102C11.1968 14.6169 11.1228 14.5063 11.0723 14.3844C11.0219 14.2626 10.9959 14.132 10.9959 14.0002C10.9959 13.8683 11.0219 13.7378 11.0723 13.6159C11.1228 13.4941 11.1968 13.3834 11.29 13.2902C11.3832 13.1969 11.4939 13.123 11.6157 13.0725C11.7376 13.0221 11.8681 12.9961 12 12.9961C12.1319 12.9961 12.2624 13.0221 12.3842 13.0725C12.5061 13.123 12.6168 13.1969 12.71 13.2902Z" fill="#5CB226"/>
</svg>
