<svg width="34" height="34" viewBox="0 0 34 34" fill="none" xmlns="http://www.w3.org/2000/svg">
<path d="M17.0311 26.9999C19.0089 26.9937 20.9405 26.4012 22.5815 25.2973C24.2226 24.1934 25.4995 22.6276 26.2507 20.798C27.0018 18.9684 27.1936 16.9571 26.8017 15.0185C26.4099 13.0799 25.4519 11.301 24.049 9.90687C22.6462 8.51271 20.8614 7.56585 18.9204 7.18603C16.9794 6.80621 14.9694 7.0105 13.1445 7.77305C11.3196 8.53561 9.76177 9.82219 8.66807 11.4701C7.57438 13.118 6.9939 15.0532 7.00006 17.031C7.0083 19.6832 8.06978 22.2234 9.95097 24.0929C11.8322 25.9625 14.379 27.0081 17.0311 26.9999ZM16.9751 8.99994C18.5574 8.99502 20.1055 9.4594 21.4239 10.3344C22.7422 11.2093 23.7714 12.4555 24.3815 13.9155C24.9915 15.3754 25.155 16.9834 24.8511 18.5362C24.5473 20.089 23.7898 21.5168 22.6744 22.6391C21.5591 23.7614 20.136 24.5278 18.5851 24.8413C17.0342 25.1548 15.4252 25.0014 13.9615 24.4004C12.4979 23.7995 11.2452 22.778 10.3621 21.4651C9.47897 20.1523 9.00497 18.607 9.00005 17.0248C8.99345 14.9031 9.82997 12.8656 11.3256 11.3607C12.8212 9.85572 14.8534 9.00654 16.9751 8.99994Z" fill="#5CB226"/>
<path d="M13.7185 19.7205L16.9982 16.4103L20.2984 19.7C20.4873 19.8877 20.743 19.9927 21.0093 19.9919C21.2756 19.9911 21.5307 19.8845 21.7184 19.6956C21.9061 19.5067 22.0111 19.251 22.0103 18.9847C22.0095 18.7184 21.9029 18.4633 21.714 18.2756L17.7016 14.2881C17.6083 14.1946 17.4975 14.1206 17.3755 14.0702C17.2535 14.0198 17.1227 13.9941 16.9907 13.9945C16.8587 13.9949 16.728 14.0214 16.6063 14.0726C16.4846 14.1237 16.3743 14.1985 16.2816 14.2925L12.2941 18.3049C12.2011 18.3984 12.1275 18.5093 12.0774 18.6313C12.0273 18.7533 12.0018 18.884 12.0022 19.0158C12.0026 19.1477 12.029 19.2782 12.0798 19.3998C12.1306 19.5215 12.2049 19.6319 12.2985 19.7249C12.392 19.8178 12.5029 19.8915 12.6249 19.9415C12.7469 19.9916 12.8775 20.0172 13.0094 20.0168C13.1412 20.0164 13.2717 19.99 13.3934 19.9391C13.5151 19.8883 13.6255 19.814 13.7185 19.7205Z" fill="#5CB226"/>
</svg>
