<?xml version="1.0" encoding="utf-8"?>
<!-- Generator: Adobe Illustrator 26.0.2, SVG Export Plug-In . SVG Version: 6.00 Build 0)  -->
<svg version="1.1" id="Layer_1" xmlns="http://www.w3.org/2000/svg" xmlns:xlink="http://www.w3.org/1999/xlink" x="0px" y="0px"
	 viewBox="0 0 64 64" style="enable-background:new 0 0 64 64;" xml:space="preserve">
<style type="text/css">
	.st0{fill:#5AAD26;}
	.st1{fill:#FFFFFF;}
</style>
<rect x="0" class="st0" width="64" height="64"/>
<path class="st1" d="M11.09,52.91h3l30.22-30.22l-3-3L11.09,49.91V52.91z M52.98,19.76l-8.73-8.73l2.86-2.86
	C47.88,7.39,48.84,7,49.97,7s2.09,0.39,2.86,1.16l3,3c0.77,0.77,1.16,1.73,1.16,2.86s-0.39,2.09-1.16,2.86L52.98,19.76z
	 M50.11,22.62L15.73,57H7v-8.73l34.38-34.38L50.11,22.62z M42.81,21.19l-1.5-1.5l3,3L42.81,21.19z"/>
</svg>
