<svg width="27" height="27" viewBox="0 0 27 27" fill="none" xmlns="http://www.w3.org/2000/svg">
<path fill-rule="evenodd" clip-rule="evenodd" d="M3.82812 13.9945L8.09812 17.3162L1.10469 24.3097C0.627812 23.6731 0.281094 22.9327 0.114844 22.1233L0.11375 22.1222C0.0842186 21.9767 0.0645311 21.8291 0.0459373 21.6792C0.0415623 21.6409 0.0328123 21.6027 0.0284373 21.5633C0.00984351 21.3752 0 21.1848 0 20.9912V17.8216L3.82812 13.9945ZM18.1234 10.1784L26.5409 16.6316V20.9912C26.5409 24.0658 24.0658 26.5409 20.9912 26.5409H5.54969C5.38016 26.5409 5.21391 26.5311 5.04875 26.5158C4.99625 26.5114 4.94375 26.5048 4.89125 26.4983C4.77969 26.4852 4.66812 26.4688 4.55875 26.4491C4.49641 26.4381 4.43406 26.4283 4.37172 26.4141C4.37062 26.4141 4.36844 26.4141 4.36734 26.4141C4.23719 26.3856 4.10922 26.3517 3.98234 26.3145C3.87953 26.2839 3.77781 26.2489 3.67828 26.2128C3.65094 26.203 3.62359 26.1942 3.59625 26.1833C3.24953 26.052 2.91922 25.888 2.60969 25.6922L18.1234 10.1784ZM9.45984 5.08047C10.3534 5.08047 11.0589 5.78703 11.0589 6.68063C11.0589 7.57422 10.3534 8.27969 9.45984 8.27969C8.56625 8.27969 7.85969 7.57422 7.85969 6.68063C7.85969 5.78703 8.56625 5.08047 9.45984 5.08047ZM9.45984 3.03844C7.46047 3.03844 5.81875 4.68234 5.81875 6.68063C5.81875 8.67891 7.46047 10.3206 9.45984 10.3206C11.4581 10.3206 13.0998 8.67891 13.0998 6.68063C13.0998 4.68234 11.4581 3.03844 9.45984 3.03844ZM5.54969 0H20.9912C24.0658 0 26.5409 2.47516 26.5409 5.54859V14.0591L18.6561 8.01391C18.4647 7.86734 18.2284 7.79297 17.9878 7.80391C17.7341 7.81594 17.4923 7.92203 17.313 8.10141L9.55281 15.8616L4.36953 11.8289C4.17922 11.6813 3.94297 11.6058 3.70234 11.6145C3.44641 11.6255 3.2025 11.7316 3.02094 11.9131L0 14.9352V5.54859C0 2.47516 2.47516 0 5.54969 0Z" fill="#5CB226"/>
</svg>
