<?xml version="1.0" encoding="utf-8"?>
<!-- Generator: Adobe Illustrator 27.1.1, SVG Export Plug-In . SVG Version: 6.00 Build 0)  -->
<svg version="1.1" id="Layer_1" xmlns="http://www.w3.org/2000/svg" xmlns:xlink="http://www.w3.org/1999/xlink" x="0px" y="0px"
	 viewBox="0 0 74.9 110.7" style="enable-background:new 0 0 74.9 110.7;" xml:space="preserve">
<style type="text/css">
	.st0{fill:#1C1F2B;}
	.st1{fill:#5AAD26;}
	.st2{clip-path:url(#SVGID_00000093165428662817899500000017014934357093477295_);}
	.st3{fill:#84C329;}
	.st4{fill:#181818;}
	.st5{fill:#87C52E;}
	.st6{fill:#86C42D;}
	.st7{fill:#151515;}
	.st8{fill:#141414;}
	.st9{fill:#303030;}
</style>
<g>
	<path class="st0" d="M74.9,40.2c-0.5,1.6-1.1,3.1-1.4,4.7c-0.9,5.1-3.2,9.9-6.5,13.9c-4.3,5.1-5.3,11.4-6.8,17.5
		c-0.2,0.7-0.3,1.4-0.5,2.1c-1,4.1-2.4,5.2-6.7,5.2H23.5c-0.8-0.1-1.6,0-2.4,0.1c-0.6,0.3-1.4,1.1-1.4,1.6s0.8,1.3,1.5,1.5
		c0.7,0.2,1.4,0.2,2.2,0.1h29.3c3.6,0,5.6,1.8,5.7,5.1c0,3.3-2.2,5.2-5.6,5.2H26.9c-0.6,0-1.4-0.2-1.9,0.1c-0.6,0.5-1.2,1-1.7,1.7
		c0.4,0.6,1,1,1.7,1.3c0.7,0.2,1.4,0.3,2.1,0.1c5.8,0,11.7,0,17.5,0c1.3-0.1,2.5,0.4,3.5,1.2c1,0.8,1.5,2,1.6,3.3c0,0.2,0,0.4,0,0.7
		c0,2.9-1.9,4.8-5,5c-1.7,0.2-3.5,0.2-5.2,0c-0.9-0.1-1.7-1.1-2.5-1.7c0.9-0.7,1.7-1.7,2.7-1.9c1.4-0.3,2.9,0,4.4-0.1
		c0.7-0.2,1.3-0.6,1.9-1c-0.5-0.6-1.1-1.2-1.8-1.6c-0.6-0.2-1.3-0.2-1.9-0.1H25.1c-3.7,0-5.5-1.8-5.5-5.2c0-3.4,2-5.1,5.7-5.1h26.3
		c1.2,0,2.9,0.3,2.9-1.5c0-1.9-1.6-1.6-2.9-1.6H21.4c-2.5,0-4.5-1.1-5.4-3.4c-0.7-1.9-0.6-4.2,1.3-5.4c1.3-0.9,2.9-1.4,4.5-1.5
		c9.9-0.1,19.9-0.2,29.8,0c2.9,0.1,4.2-0.9,4.8-3.8c1.6-7.3,3.3-14.5,8.1-20.8c2.4-3.3,4.2-7,5.2-10.9C74.6,26.5,62.7,8,43.6,4
		C20.5-0.8-0.6,20.6,4.5,43.6c1,4.9,3.2,9.5,6.2,13.4c3.1,3.8,5.1,8.4,6,13.2c0.4,2,1.3,3.2,3.7,2.9c2.2-0.2,4.4,0,6.6-0.1
		c2.1-0.1,4.1-1,5.6-2.4c1.5-1.5,2.4-3.5,2.4-5.6c0.1-1.5-0.5-2.1-2-2.2C18.7,61.2,8,47,11.4,31.4c0.3-1.6,1.1-2,2.7-1.8
		C23.9,30.2,31,35,35.8,43.4c0.3,0.5,0.6,1.1,1,1.8c5.1-10.1,13.1-15.5,24.7-15.8c2.1,7.9,1.5,15.4-3.2,22.3c-2.1,3.3-5,6.1-8.4,8
		c-3.4,2-7.2,3.1-11.2,3.4c0.2,4.3-0.9,8-4.2,10.6c-1.9,1.5-4.1,2.5-6.5,3c-3.2,0.4-6.4,0.4-9.5,0.2c-1.2,0-2.4-0.4-3.3-1.1
		c-0.9-0.8-1.5-1.9-1.7-3.1c-1.2-5.3-3.4-10.3-6.7-14.6c-5.7-7.9-8-17.8-6.4-27.4c1.6-9.6,6.9-18.2,14.9-23.9
		c0.4-0.3,0.8-0.6,1.2-0.8c3.2-2.1,7-3.2,10.5-4.8c0.8-0.3,1.5-0.7,2.3-1.1h15.9c0.7,0.4,1.4,0.8,2.2,1.1
		c12.6,4,21.2,12.1,25.2,24.8c0.8,2.6,1.4,5.2,2.1,7.9L74.9,40.2z M39.2,59.1c0.6,0,1.2-0.1,1.8-0.1c4.9-0.9,9.3-3.4,12.5-7.1
		c3.3-3.7,5.2-8.4,5.5-13.4c0.3-5.3-0.2-5.8-5.1-4.2c-0.3,0.1-0.5,0.2-0.8,0.3C43.4,37.8,36.9,49,39.2,59.1z M34.6,59.2
		c0.8-4,0.4-8.1-1.1-11.9c-2.9-6.9-7.8-11.4-15.1-13.3c-3.1-0.8-3.7-0.6-3.7,2.5c-0.2,5.5,1.6,10.8,5.2,15c1.8,2.2,4.1,4,6.6,5.3
		C29,58.1,31.8,58.9,34.6,59.2L34.6,59.2z"/>
	<path class="st1" d="M39.2,59.1C37,49,43.4,37.7,53.1,34.6c0.3-0.1,0.5-0.2,0.8-0.3c4.9-1.6,5.4-1.1,5.1,4.2
		c-0.3,4.9-2.2,9.6-5.5,13.4c-3.3,3.7-7.7,6.2-12.5,7.1C40.4,59.1,39.8,59.1,39.2,59.1z"/>
	<path class="st1" d="M34.6,59.2c-2.8-0.2-5.6-1-8.1-2.3c-2.5-1.3-4.8-3.1-6.6-5.3c-3.6-4.2-5.4-9.6-5.2-15.1
		c0.1-3.2,0.6-3.3,3.7-2.5c7.3,1.9,12.2,6.5,15.1,13.3C35,51.1,35.4,55.2,34.6,59.2z"/>
</g>
</svg>
