<svg width="376" height="112" viewBox="0 0 376 112" fill="none" xmlns="http://www.w3.org/2000/svg">
<g clip-path="url(#clip0)">
<path d="M375.31 40.2701C374.82 41.8301 374.2 43.36 373.87 44.95C372.93 50.0502 370.707 54.8269 367.41 58.83C363.12 63.93 362.15 70.23 360.57 76.33C360.38 77.03 360.27 77.7501 360.1 78.4601C359.1 82.5701 357.74 83.6701 353.44 83.6801H323.9C323.088 83.5799 322.264 83.6307 321.47 83.83C320.86 84.09 320.06 84.8901 320.1 85.4001C320.14 85.9101 320.94 86.66 321.57 86.94C322.282 87.0996 323.017 87.1301 323.74 87.03H353C356.65 87.03 358.65 88.8601 358.67 92.1201C358.69 95.3801 356.52 97.34 353.03 97.35H327.32C326.68 97.35 325.93 97.15 325.43 97.42C324.787 97.8895 324.215 98.4485 323.73 99.08C324.161 99.6723 324.762 100.12 325.453 100.365C326.143 100.609 326.892 100.639 327.6 100.45C333.43 100.45 339.27 100.45 345.1 100.45C346.376 100.371 347.631 100.801 348.589 101.647C349.547 102.493 350.13 103.684 350.21 104.96C350.225 105.176 350.225 105.394 350.21 105.61C350.21 108.5 348.31 110.42 345.21 110.61C343.488 110.79 341.752 110.79 340.03 110.61C339.13 110.47 338.36 109.51 337.53 108.91C338.41 108.24 339.2 107.22 340.19 106.99C341.56 106.65 343.09 106.99 344.54 106.85C345.227 106.63 345.87 106.292 346.44 105.85C345.91 105.233 345.302 104.688 344.63 104.23C344.013 104.069 343.368 104.041 342.74 104.15H325.5C321.84 104.15 319.97 102.31 319.99 98.91C320.01 95.51 321.99 93.79 325.66 93.78H351.92C353.16 93.78 354.79 94.11 354.8 92.23C354.81 90.35 353.16 90.6501 351.93 90.6501H321.84C319.3 90.6501 317.29 89.58 316.46 87.26C315.78 85.37 315.83 83.1001 317.72 81.8101C319.043 80.9193 320.587 80.4138 322.18 80.35C332.12 80.22 342.06 80.18 351.99 80.35C354.91 80.4 356.16 79.46 356.78 76.6C358.36 69.27 360.04 62.0501 364.9 55.8401C367.326 52.5752 369.086 48.8646 370.08 44.92C375.02 26.53 363.08 8.03005 344.02 4.05005C320.87 -0.769951 299.76 20.6801 304.92 43.6801C305.938 48.5715 308.074 53.1612 311.16 57.0901C314.211 60.9362 316.271 65.4721 317.16 70.3C317.57 72.3 318.48 73.46 320.85 73.2C323.01 72.96 325.22 73.2 327.41 73.13C329.503 73.0394 331.485 72.1675 332.966 70.6864C334.447 69.2053 335.319 67.2227 335.41 65.13C335.47 63.64 334.94 63.07 333.41 62.89C319.08 61.22 308.41 47.04 311.83 31.44C312.17 29.84 312.94 29.4401 314.5 29.5901C324.31 30.2201 331.37 35.08 336.21 43.42C336.52 43.96 336.79 44.5301 337.16 45.2401C342.28 35.1001 350.31 29.76 361.89 29.45C364.04 37.36 363.41 44.8301 358.74 51.7401C356.593 55.0447 353.702 57.8006 350.298 59.7872C346.895 61.7737 343.073 62.9357 339.14 63.1801C339.32 67.4601 338.23 71.18 334.98 73.79C333.097 75.3029 330.872 76.3328 328.5 76.79C325.329 77.1483 322.132 77.2119 318.95 76.98C317.739 77.0251 316.555 76.6162 315.63 75.8337C314.706 75.0512 314.106 73.9515 313.95 72.75C312.781 67.4547 310.501 62.4681 307.26 58.1201C301.587 50.1964 299.293 40.3437 300.883 30.7291C302.474 21.1144 307.818 12.525 315.74 6.85004C316.14 6.56004 316.56 6.28004 316.97 6.01004C320.14 3.89004 323.97 2.77004 327.52 1.17004C328.3 0.830044 329.04 0.430049 329.8 0.0500488H345.67C346.363 0.494061 347.092 0.878755 347.85 1.20004C360.44 5.20004 369.03 13.3401 373.09 25.9901C373.91 28.5701 374.51 31.23 375.21 33.85L375.31 40.2701ZM339.6 59.17C340.209 59.1619 340.816 59.1185 341.42 59.04C346.284 58.1387 350.703 55.6281 353.968 51.9118C357.233 48.1955 359.153 43.4894 359.42 38.55C359.72 33.2001 359.21 32.7701 354.29 34.3401C354.03 34.4301 353.79 34.58 353.53 34.66C343.78 37.81 337.31 49.05 339.6 59.17ZM335.02 59.22C335.77 55.2268 335.382 51.1033 333.9 47.32C330.98 40.46 326.12 35.93 318.79 34C315.68 33.18 315.12 33.3501 315.06 36.5201C314.834 41.9977 316.692 47.3574 320.26 51.5201C322.071 53.7318 324.314 55.5516 326.852 56.8686C329.389 58.1855 332.169 58.972 335.02 59.1801V59.22Z" fill="#1C1F2B"/>
<path d="M30.01 49.82C29.9903 49.1153 30.0884 48.4124 30.3 47.74C30.79 46.97 31.53 45.83 32.18 45.82C33.297 45.9144 34.3515 46.3749 35.18 47.13C35.62 47.48 35.65 48.47 35.66 49.13C35.66 59.49 35.83 69.85 35.59 80.21C35.37 89.52 30.53 94.88 21.29 96.15C15.29 96.97 9.39998 96.54 4.68998 91.99C3.59998 90.94 2.17998 89.81 3.34998 88.04C4.51998 86.27 6.20998 86.76 7.65998 87.69C11.18 89.97 14.84 91.46 19.18 91.08C25.18 90.55 31.31 86.92 29.87 78.33C24.78 83.19 18.94 84.42 12.45 82.46C8.61294 81.2026 5.35287 78.613 3.25997 75.16C-1.74003 67.67 -0.910021 57.04 5.10998 51C12.08 44.04 20.31 43.55 30.01 49.82ZM30.69 64.92C29.94 61.43 29.93 58.31 28.61 55.92C24.86 49.05 13.04 48.92 8.60998 55.42C7.15901 57.4576 6.1968 59.8021 5.79794 62.2715C5.39908 64.741 5.57428 67.2691 6.30998 69.66C7.88998 74.95 12.23 77.1 17.21 77.87C21.66 78.56 25.7 77.21 27.92 73.07C29.31 70.47 29.86 67.42 30.69 64.92Z" fill="#84C329"/>
<path d="M261.08 67.89C261.23 72.98 266.78 77.89 272.3 78.24C276.131 78.6228 279.974 77.6303 283.14 75.44C284.55 74.44 286.27 73.96 287.19 75.5C287.68 76.33 287.13 78.28 286.4 79.21C285.362 80.3341 284.069 81.1917 282.63 81.71C274.29 85.19 264.63 83.4 259.79 77.41C252.18 68 252.93 51 268.66 46.41C282.76 42.32 292.97 53.34 292.66 64.89C292.58 67.47 290.66 67.84 288.66 67.89H261.08ZM287.19 63.17C286.55 55.32 280.42 50.49 272.36 51.09C265.71 51.59 260.55 57.09 261.03 63.17H287.19Z" fill="#181818"/>
<path d="M65.8 67.91C65.8 72.91 71.35 77.91 76.96 78.18C80.7918 78.5636 84.6363 77.5865 87.82 75.42C89.2 74.42 90.96 73.93 91.82 75.62C92.28 76.52 91.72 78.42 90.97 79.33C89.9473 80.4723 88.6287 81.3098 87.16 81.75C79.85 84.12 72.6 84.7 66.29 79.28C56.92 71.22 56.79 53.37 70.71 47.39C84.22 41.58 96.71 51.06 97.28 63.51C97.44 66.84 96.43 67.91 93.03 67.92H65.8V67.91ZM91.66 63.09C91.8 57.35 88.49 54.26 84.27 52.27C82.1528 51.1644 79.7718 50.6635 77.3886 50.8223C75.0053 50.981 72.7119 51.7933 70.76 53.17C69.1186 54.2407 67.78 55.7155 66.8729 57.4527C65.9658 59.1899 65.5206 61.1311 65.58 63.09H91.66Z" fill="#87C52E"/>
<path d="M104.73 67.9099C105.23 73.1799 110.48 77.82 115.87 78.18C119.698 78.599 123.551 77.6534 126.75 75.5099C128.18 74.5099 129.75 73.9599 130.89 75.3799C131.343 75.9237 131.562 76.6252 131.499 77.3303C131.435 78.0354 131.094 78.6864 130.55 79.1399C130.333 79.3104 130.094 79.4516 129.84 79.56C127.294 81.053 124.545 82.1712 121.68 82.8799C114.05 84.3099 107.2 82.88 102.4 76.05C98.02 69.84 97.63 60.1799 101.82 53.9199C108.99 43.2199 126 42.45 133.41 54.11C135.151 56.9799 136.131 60.2459 136.26 63.5999C136.5 66.7899 135.42 67.89 132.2 67.9H104.73V67.9099ZM104.67 63.15C105.58 63.15 106.55 63.2799 107.52 63.2799H127.43C131.31 63.2799 131.83 62.3999 130.1 58.7799C126.92 52.1199 118.43 49.06 111.52 52.02C108.25 53.42 103.97 59.3399 104.67 63.1699V63.15Z" fill="#86C42D"/>
<path d="M187.31 51.9C192.45 46.21 200.14 44.14 206.1 46.31C209.354 47.3993 212.178 49.4924 214.168 52.2883C216.157 55.0842 217.208 58.4389 217.17 61.87C217.29 67.78 217.23 73.68 217.17 79.59C217.17 81.22 217.08 83 214.88 83.31C212.68 83.62 211.75 82.52 211.76 80.31C211.76 74.31 211.85 68.31 211.67 62.31C211.45 55.05 207.14 50.9 200.19 50.95C192.79 51 187.47 55.86 187.32 62.95C187.21 68.58 187.32 74.22 187.32 79.85C187.32 81.7 187.03 83.37 184.59 83.36C182.15 83.35 181.83 81.77 181.83 79.87V39.2C181.83 37.2 182.08 35.36 184.6 35.43C187.12 35.5 187.4 37.2 187.36 39.26C187.31 43.24 187.31 47.17 187.31 51.9Z" fill="#151515"/>
<path d="M238.57 45.67C243.24 45.52 247.57 46.06 250.92 49.36C251.903 50.1483 252.659 51.1836 253.11 52.36C253.37 53.43 253.02 55.54 252.44 55.74C251.33 56.11 249.1 55.89 248.69 55.15C247.04 52.25 244.55 51.33 241.53 50.94C237.46 50.42 233.4 50.59 229.92 52.73C228.63 53.52 227.68 55.84 227.67 57.48C227.67 59.57 229.54 60.48 231.67 60.7C236.67 61.26 241.6 61.88 246.53 62.7C251.46 63.52 253.83 65.9 254.39 69.7C255.22 75.35 253.29 79.02 248.66 81.06C245.32 82.6163 241.682 83.4319 237.997 83.4509C234.312 83.4699 230.666 82.6918 227.31 81.17C224.61 79.97 222.22 78.09 221.93 74.85C221.84 73.85 222.64 72.06 223.32 71.91C224.32 71.67 226.32 72.28 226.64 73.05C228.46 77.37 232.28 77.94 236.05 78.2C238.85 78.3893 241.662 78.0916 244.36 77.32C246.112 76.6395 247.604 75.4212 248.62 73.84C249.001 73.3745 249.254 72.817 249.352 72.2234C249.451 71.6298 249.392 71.0208 249.181 70.4571C248.971 69.8934 248.616 69.3947 248.153 69.011C247.689 68.6272 247.133 68.3717 246.54 68.27C242.48 67.4 238.29 67.11 234.17 66.48C230.78 65.96 227.3 65.65 224.63 63.04C222.931 61.4128 221.949 59.1775 221.898 56.8259C221.848 54.4743 222.733 52.1988 224.36 50.5C224.757 50.073 225.2 49.6907 225.68 49.36C229.404 46.6411 233.972 45.3334 238.57 45.67Z" fill="#141414"/>
<path d="M144.41 51.66C146.29 50.15 147.78 48.46 149.65 47.53C157.79 43.48 168.5 45.34 172.99 55.48C173.631 56.9722 173.971 58.5762 173.99 60.2C174.1 66.83 173.99 73.46 174.05 80.09C174.05 81.74 173.96 83.19 171.75 83.35C169.54 83.51 168.75 82.05 168.7 80.35C168.52 74.55 168.33 68.73 168.54 62.93C168.81 55.84 165.6 52.82 160.25 51.24C157.544 50.4797 154.655 50.7071 152.101 51.8815C149.547 53.0559 147.494 55.1007 146.31 57.65C145.137 60.4554 144.461 63.4431 144.31 66.48C143.98 70.9 144.22 75.37 144.23 79.82C144.23 81.68 144.07 83.39 141.57 83.34C139.31 83.34 138.57 81.82 138.57 79.91V49.42C138.57 47.42 139.62 46.02 141.65 46.01C143.68 46 144.17 47.5 144.22 49.23C144.31 49.98 144.31 50.75 144.41 51.66Z" fill="#84C329"/>
<path d="M46.01 51.96C48.85 47.77 52.29 46.02 56.6 46.46C57.1721 46.5522 57.7155 46.7741 58.1886 47.1086C58.6618 47.4431 59.0522 47.8814 59.33 48.39C59.93 50.03 58.71 51.1099 57.11 51.4999C55.51 51.8899 53.38 51.81 51.88 52.63C48.26 54.63 46.56 58.01 46.51 62.11C46.43 67.93 46.43 73.7466 46.51 79.56C46.51 81.48 45.79 82.74 43.97 83.21C42.15 83.68 40.68 82.21 40.67 80.21V49.68C40.67 47.79 41.5 46.45 43.54 46.44C45.75 46.44 46.2 47.93 46.05 49.79C45.9902 50.5117 45.9769 51.2365 46.01 51.96Z" fill="#87C52E"/>
<path d="M339.6 59.17C337.35 49.04 343.78 37.8 353.49 34.66C353.75 34.58 353.99 34.43 354.25 34.34C359.17 32.77 359.68 33.2 359.38 38.55C359.113 43.4894 357.193 48.1954 353.928 51.9117C350.663 55.628 346.244 58.1386 341.38 59.04C340.79 59.1185 340.195 59.1619 339.6 59.17Z" fill="#5AAD26"/>
<path d="M335.02 59.23C332.177 59.02 329.407 58.2335 326.878 56.9183C324.349 55.6031 322.114 53.7868 320.31 51.58C316.73 47.4045 314.872 42.0247 315.11 36.53C315.17 33.36 315.73 33.19 318.84 34.01C326.17 35.94 331.03 40.47 333.95 47.33C335.42 51.1169 335.79 55.2417 335.02 59.23Z" fill="#5AAD26"/>
<path d="M99.5209 93.3698H107.888C108.397 93.4196 108.652 93.6298 108.652 94.0006V94.1334C108.652 94.5042 108.397 94.7145 107.888 94.7643H104.402V103.596C104.352 104.105 104.142 104.36 103.771 104.36H103.638C103.267 104.36 103.057 104.105 103.007 103.596V94.7643H99.5209C99.0118 94.7145 98.7572 94.5042 98.7572 94.1334V94.0006C98.7572 93.6298 99.0118 93.4196 99.5209 93.3698ZM121.41 95.694H122.074C123.69 95.694 124.941 96.5766 125.826 98.3419C126.009 98.9783 126.1 99.5843 126.1 100.16C126.1 100.497 125.862 100.699 125.386 100.766H118.77C118.77 101.585 119.34 102.318 120.48 102.965C120.901 103.115 121.266 103.19 121.576 103.19H121.858C122.722 103.19 123.491 102.913 124.166 102.359L124.448 102.31C124.813 102.393 124.996 102.575 124.996 102.858C124.791 103.704 123.781 104.2 121.966 104.343H121.692C119.656 104.343 118.314 103.333 117.666 101.314C117.556 101.048 117.5 100.68 117.5 100.21V99.8278C117.5 97.9241 118.51 96.5822 120.53 95.8019C120.951 95.7299 121.244 95.694 121.41 95.694ZM118.712 99.7198H124.888C124.888 98.5411 124.207 97.6391 122.846 97.0138C122.525 96.9031 122.157 96.8478 121.742 96.8478C120.281 96.8478 119.307 97.5838 118.82 99.0558C118.748 99.3491 118.712 99.5704 118.712 99.7198ZM140.029 95.5529C141.351 95.5529 142.397 96.1035 143.166 97.2047V97.3209C143.166 97.653 142.948 97.8549 142.511 97.9269C142.439 97.9269 142.107 97.6696 141.515 97.1549C141.005 96.8616 140.51 96.715 140.029 96.715H139.697C138.396 96.715 137.497 97.4676 136.999 98.9728C136.921 99.1056 136.866 99.4542 136.833 100.019C136.833 101.629 137.585 102.678 139.091 103.165C139.367 103.237 139.625 103.273 139.863 103.273C140.986 103.273 141.869 102.849 142.511 102.003L142.785 101.953C143.15 102.047 143.332 102.229 143.332 102.501V102.609C143.332 103.062 142.69 103.577 141.407 104.152C140.986 104.335 140.452 104.426 139.805 104.426C137.962 104.426 136.639 103.508 135.837 101.671C135.654 101.089 135.563 100.558 135.563 100.077V99.9606C135.563 97.8743 136.556 96.4798 138.543 95.777C138.98 95.6276 139.475 95.5529 140.029 95.5529ZM153.625 93.2701C154.068 93.3255 154.289 93.5275 154.289 93.8761V97.1217C155.025 96.1311 156.071 95.6359 157.427 95.6359C159.082 95.6359 160.258 96.4632 160.955 98.1178C161.104 98.5328 161.179 99.1748 161.179 100.044V103.464C161.179 104.05 160.994 104.343 160.623 104.343H160.457C160.092 104.343 159.909 104.141 159.909 103.737V99.7198C159.909 98.3807 159.394 97.4786 158.365 97.0138C158.033 96.9031 157.756 96.8478 157.535 96.8478H157.153C155.808 96.8478 154.87 97.5644 154.339 98.9977C154.306 99.1914 154.289 99.3767 154.289 99.5538V103.688C154.251 104.125 154.065 104.343 153.733 104.343H153.567C153.202 104.294 153.019 104.13 153.019 103.854V93.652C153.196 93.3974 153.398 93.2701 153.625 93.2701ZM175.963 95.6359C177.645 95.6359 178.84 96.4632 179.549 98.1178C179.659 98.5107 179.715 98.8427 179.715 99.1139V103.854C179.665 104.18 179.499 104.343 179.217 104.343H178.993C178.627 104.343 178.445 104.014 178.445 103.356V99.1637C178.445 98.0403 177.747 97.2684 176.353 96.8478H175.797C174.452 96.8478 173.497 97.6198 172.933 99.1637C172.861 99.5621 172.825 99.9855 172.825 100.434V103.854C172.775 104.18 172.609 104.343 172.327 104.343H172.103C171.776 104.343 171.594 104.125 171.555 103.688V96.4659C171.555 95.9845 171.776 95.7438 172.219 95.7438C172.623 95.7438 172.825 95.9845 172.825 96.4659V97.2379H172.875C173.511 96.1699 174.541 95.6359 175.963 95.6359ZM194.108 95.5861C196.161 95.5861 197.556 96.6679 198.292 98.8317C198.364 99.1471 198.419 99.5151 198.458 99.9357C198.458 102.005 197.429 103.419 195.37 104.177C194.988 104.288 194.604 104.343 194.216 104.343H193.992C191.967 104.343 190.589 103.242 189.858 101.04C189.786 100.58 189.75 100.193 189.75 99.8776C189.75 98.1399 190.614 96.8173 192.34 95.9098C192.971 95.694 193.56 95.5861 194.108 95.5861ZM191.02 99.9938C191.02 101.482 191.737 102.492 193.17 103.024C193.486 103.134 193.798 103.19 194.108 103.19C195.37 103.19 196.305 102.564 196.914 101.314C197.097 100.893 197.188 100.453 197.188 99.9938C197.188 98.3226 196.38 97.2739 194.764 96.8478C194.576 96.8146 194.357 96.798 194.108 96.798H193.942C192.509 96.798 191.552 97.6225 191.07 99.2716C191.07 99.4376 191.054 99.6783 191.02 99.9938ZM209.299 93.2701H209.415C209.78 93.3199 209.963 93.4832 209.963 93.7599V103.796C209.963 104.128 209.741 104.31 209.299 104.343C208.933 104.26 208.751 104.078 208.751 103.796V93.7599C208.751 93.4832 208.933 93.3199 209.299 93.2701ZM224.439 95.5861C226.492 95.5861 227.887 96.6679 228.623 98.8317C228.695 99.1471 228.75 99.5151 228.789 99.9357C228.789 102.005 227.76 103.419 225.701 104.177C225.319 104.288 224.935 104.343 224.547 104.343H224.323C222.298 104.343 220.92 103.242 220.189 101.04C220.117 100.58 220.081 100.193 220.081 99.8776C220.081 98.1399 220.945 96.8173 222.671 95.9098C223.302 95.694 223.891 95.5861 224.439 95.5861ZM221.351 99.9938C221.351 101.482 222.068 102.492 223.501 103.024C223.817 103.134 224.129 103.19 224.439 103.19C225.701 103.19 226.636 102.564 227.245 101.314C227.428 100.893 227.519 100.453 227.519 99.9938C227.519 98.3226 226.711 97.2739 225.095 96.8478C224.907 96.8146 224.688 96.798 224.439 96.798H224.273C222.84 96.798 221.883 97.6225 221.401 99.2716C221.401 99.4376 221.385 99.6783 221.351 99.9938ZM242.66 95.5861H242.933C244.101 95.5861 244.964 95.99 245.523 96.798H245.581C245.581 96.062 245.689 95.694 245.905 95.694C245.972 95.6552 246.046 95.6359 246.129 95.6359C246.605 95.6359 246.843 95.9292 246.843 96.5157V103.082C246.843 105.124 246.182 106.408 244.859 106.933C244.262 107.232 243.62 107.381 242.933 107.381H242.494C241.071 107.381 240.006 106.883 239.298 105.887V105.721C239.381 105.356 239.563 105.173 239.846 105.173H239.953C240.042 105.173 240.54 105.45 241.448 106.004C241.846 106.109 242.231 106.161 242.601 106.161H242.767C244.085 106.161 244.984 105.649 245.465 104.626C245.543 104.294 245.581 104.053 245.581 103.903V103.024C244.884 103.903 243.966 104.343 242.826 104.343C240.856 104.343 239.514 103.297 238.8 101.206C238.728 100.94 238.672 100.536 238.634 99.9938C238.634 97.8522 239.699 96.4189 241.829 95.694C242.178 95.622 242.455 95.5861 242.66 95.5861ZM239.904 100.102C239.904 101.729 240.748 102.722 242.435 103.082C242.574 103.115 242.74 103.131 242.933 103.131C244.206 103.131 245.07 102.454 245.523 101.098C245.562 100.777 245.581 100.5 245.581 100.268V99.6036C245.581 98.3585 245.177 97.5312 244.37 97.1217C243.844 96.9059 243.384 96.798 242.992 96.798H242.767C241.229 96.798 240.274 97.7719 239.904 99.7198V100.102ZM257.858 93.212C258.24 93.212 258.459 93.45 258.514 93.9259V94.4821C258.481 94.9192 258.298 95.1378 257.966 95.1378H257.742C257.416 95.1378 257.233 94.9192 257.194 94.4821V93.9259C257.255 93.45 257.476 93.212 257.858 93.212ZM257.858 95.8019C258.262 95.8019 258.464 95.9679 258.464 96.2999V103.854C258.464 104.18 258.262 104.343 257.858 104.343C257.416 104.343 257.194 104.05 257.194 103.464V96.6818C257.194 96.0952 257.416 95.8019 257.858 95.8019ZM272.534 95.694H273.198C274.814 95.694 276.065 96.5766 276.95 98.3419C277.133 98.9783 277.224 99.5843 277.224 100.16C277.224 100.497 276.986 100.699 276.51 100.766H269.894C269.894 101.585 270.464 102.318 271.604 102.965C272.025 103.115 272.39 103.19 272.7 103.19H272.982C273.846 103.19 274.615 102.913 275.29 102.359L275.572 102.31C275.937 102.393 276.12 102.575 276.12 102.858C275.915 103.704 274.905 104.2 273.09 104.343H272.816C270.78 104.343 269.438 103.333 268.79 101.314C268.68 101.048 268.624 100.68 268.624 100.21V99.8278C268.624 97.9241 269.634 96.5822 271.654 95.8019C272.075 95.7299 272.368 95.694 272.534 95.694ZM269.836 99.7198H276.012C276.012 98.5411 275.331 97.6391 273.97 97.0138C273.649 96.9031 273.281 96.8478 272.866 96.8478C271.405 96.8478 270.431 97.5838 269.944 99.0558C269.872 99.3491 269.836 99.5704 269.836 99.7198ZM290.862 95.6359C292.611 95.6359 293.715 96.2418 294.174 97.4537V97.6198C294.052 97.9518 293.85 98.1178 293.568 98.1178H293.402C293.164 98.1178 292.943 97.8798 292.738 97.4039C292.307 97 291.681 96.798 290.862 96.798H290.256C288.823 96.9529 288.106 97.4122 288.106 98.1759C288.106 98.6407 288.364 98.9534 288.878 99.1139C291.684 99.3408 293.283 99.6507 293.676 100.044C294.152 100.475 294.39 100.973 294.39 101.538V101.87C294.39 102.888 293.729 103.621 292.406 104.069C291.869 104.252 291.299 104.343 290.696 104.343H290.588C288.806 104.343 287.594 103.848 286.953 102.858C286.842 102.526 286.786 102.304 286.786 102.193V102.144C286.786 101.834 287.008 101.648 287.451 101.588C287.738 101.588 287.976 101.884 288.164 102.476C288.734 102.952 289.47 103.19 290.372 103.19H290.862C291.974 103.19 292.73 102.786 293.128 101.978V101.538C293.128 100.874 292.21 100.542 290.372 100.542C288.768 100.359 287.849 100.102 287.617 99.7697C287.102 99.4598 286.845 98.9091 286.845 98.1178C286.845 96.8395 287.871 96.0122 289.924 95.6359H290.862Z" fill="#303030"/>
</g>
<defs>
<clipPath id="clip0">
<rect width="375.32" height="111.05" fill="white"/>
</clipPath>
</defs>
</svg>
