<svg width="302" height="282" viewBox="0 0 302 282" fill="none" xmlns="http://www.w3.org/2000/svg">
<path d="M302 281.312H0V0H302V281.312ZM0.644338 280.822H301.334V0.473178H0.644338V280.822Z" fill="#DAD5D5"/>
<path d="M301.678 252.741H0.322205V253.231H301.678V252.741Z" fill="#DAD5D5"/>
<path d="M301.678 224.66H0.322205V225.15H301.678V224.66Z" fill="#DAD5D5"/>
<path d="M301.678 196.564H0.322205V197.054H301.678V196.564Z" fill="#DAD5D5"/>
<path d="M301.678 168.483H0.322205V168.972H301.678V168.483Z" fill="#DAD5D5"/>
<path d="M301.678 140.403H0.322205V140.892H301.678V140.403Z" fill="#DAD5D5"/>
<path d="M301.678 112.322H0.322205V112.812H301.678V112.322Z" fill="#DAD5D5"/>
<path d="M301.678 84.2256H0.322205V84.7151H301.678V84.2256Z" fill="#DAD5D5"/>
<path d="M301.678 56.1455H0.322205V56.635H301.678V56.1455Z" fill="#DAD5D5"/>
<path d="M301.678 28.0645H0.322205V28.554H301.678V28.0645Z" fill="#DAD5D5"/>
<path d="M264.328 0.229004H263.684V281.084H264.328V0.229004Z" fill="#DAD5D5"/>
<path d="M226.656 0.229004H226.011V281.084H226.656V0.229004Z" fill="#DAD5D5"/>
<path d="M188.984 0.229004H188.339V281.084H188.984V0.229004Z" fill="#DAD5D5"/>
<path d="M151.311 0.229004H150.667V281.084H151.311V0.229004Z" fill="#DAD5D5"/>
<path d="M113.639 0.229004H112.995V281.084H113.639V0.229004Z" fill="#DAD5D5"/>
<path d="M75.9671 0.229004H75.3228V281.084H75.9671V0.229004Z" fill="#DAD5D5"/>
<path d="M38.3165 0.229004H37.6722V281.084H38.3165V0.229004Z" fill="#DAD5D5"/>
<path d="M301.849 281.198H0.149231V0.0981445H301.849V281.198ZM0.471402 280.953H301.526V0.31026H0.471402V280.953Z" fill="#DAD5D5"/>
<path d="M301.678 273.92H0.322205V274.165H301.678V273.92Z" fill="#DAD5D5"/>
<path d="M301.678 266.904H0.322205V267.149H301.678V266.904Z" fill="#DAD5D5"/>
<path d="M301.678 259.888H0.322205V260.132H301.678V259.888Z" fill="#DAD5D5"/>
<path d="M301.678 252.872H0.322205V253.117H301.678V252.872Z" fill="#DAD5D5"/>
<path d="M301.678 245.839H0.322205V246.084H301.678V245.839Z" fill="#DAD5D5"/>
<path d="M301.678 238.823H0.322205V239.068H301.678V238.823Z" fill="#DAD5D5"/>
<path d="M301.678 231.807H0.322205V232.051H301.678V231.807Z" fill="#DAD5D5"/>
<path d="M301.678 224.775H0.322205V225.02H301.678V224.775Z" fill="#DAD5D5"/>
<path d="M301.678 217.76H0.322205V218.005H301.678V217.76Z" fill="#DAD5D5"/>
<path d="M301.678 210.743H0.322205V210.988H301.678V210.743Z" fill="#DAD5D5"/>
<path d="M301.678 203.711H0.322205V203.956H301.678V203.711Z" fill="#DAD5D5"/>
<path d="M301.678 196.694H0.322205V196.939H301.678V196.694Z" fill="#DAD5D5"/>
<path d="M301.678 189.678H0.322205V189.923H301.678V189.678Z" fill="#DAD5D5"/>
<path d="M301.678 182.646H0.322205V182.891H301.678V182.646Z" fill="#DAD5D5"/>
<path d="M301.678 175.63H0.322205V175.875H301.678V175.63Z" fill="#DAD5D5"/>
<path d="M301.678 168.614H0.322205V168.859H301.678V168.614Z" fill="#DAD5D5"/>
<path d="M301.678 161.581H0.322205V161.826H301.678V161.581Z" fill="#DAD5D5"/>
<path d="M301.678 154.565H0.322205V154.81H301.678V154.565Z" fill="#DAD5D5"/>
<path d="M301.678 147.55H0.322205V147.795H301.678V147.55Z" fill="#DAD5D5"/>
<path d="M301.678 140.517H0.322205V140.762H301.678V140.517Z" fill="#DAD5D5"/>
<path d="M301.678 133.5H0.322205V133.745H301.678V133.5Z" fill="#DAD5D5"/>
<path d="M301.678 126.485H0.322205V126.73H301.678V126.485Z" fill="#DAD5D5"/>
<path d="M301.678 119.453H0.322205V119.697H301.678V119.453Z" fill="#DAD5D5"/>
<path d="M301.678 112.437H0.322205V112.682H301.678V112.437Z" fill="#DAD5D5"/>
<path d="M301.678 105.42H0.322205V105.665H301.678V105.42Z" fill="#DAD5D5"/>
<path d="M301.678 98.4043H0.322205V98.649H301.678V98.4043Z" fill="#DAD5D5"/>
<path d="M301.678 91.3721H0.322205V91.6168H301.678V91.3721Z" fill="#DAD5D5"/>
<path d="M301.678 84.3564H0.322205V84.6012H301.678V84.3564Z" fill="#DAD5D5"/>
<path d="M301.678 77.3398H0.322205V77.5846H301.678V77.3398Z" fill="#DAD5D5"/>
<path d="M301.678 70.3071H0.322205V70.5519H301.678V70.3071Z" fill="#DAD5D5"/>
<path d="M301.678 63.2915H0.322205V63.5363H301.678V63.2915Z" fill="#DAD5D5"/>
<path d="M301.678 56.2759H0.322205V56.5206H301.678V56.2759Z" fill="#DAD5D5"/>
<path d="M301.678 49.2432H0.322205V49.4879H301.678V49.2432Z" fill="#DAD5D5"/>
<path d="M301.678 42.2266H0.322205V42.4713H301.678V42.2266Z" fill="#DAD5D5"/>
<path d="M301.678 35.2109H0.322205V35.4557H301.678V35.2109Z" fill="#DAD5D5"/>
<path d="M301.678 28.1787H0.322205V28.4235H301.678V28.1787Z" fill="#DAD5D5"/>
<path d="M301.678 21.1626H0.322205V21.4073H301.678V21.1626Z" fill="#DAD5D5"/>
<path d="M301.678 14.146H0.322205V14.3907H301.678V14.146Z" fill="#DAD5D5"/>
<path d="M301.678 7.11377H0.322205V7.35851H301.678V7.11377Z" fill="#DAD5D5"/>
<path d="M292.421 0.229004H292.099V281.084H292.421V0.229004Z" fill="#DAD5D5"/>
<path d="M283.014 0.229004H282.691V281.084H283.014V0.229004Z" fill="#DAD5D5"/>
<path d="M273.585 0.229004H273.263V281.084H273.585V0.229004Z" fill="#DAD5D5"/>
<path d="M264.178 0.229004H263.855V281.084H264.178V0.229004Z" fill="#DAD5D5"/>
<path d="M254.749 0.229004H254.427V281.084H254.749V0.229004Z" fill="#DAD5D5"/>
<path d="M245.341 0.229004H245.019V281.084H245.341V0.229004Z" fill="#DAD5D5"/>
<path d="M235.913 0.229004H235.591V281.084H235.913V0.229004Z" fill="#DAD5D5"/>
<path d="M226.505 0.229004H226.183V281.084H226.505V0.229004Z" fill="#DAD5D5"/>
<path d="M217.077 0.229004H216.754V281.084H217.077V0.229004Z" fill="#DAD5D5"/>
<path d="M207.669 0.229004H207.347V281.084H207.669V0.229004Z" fill="#DAD5D5"/>
<path d="M198.24 0.229004H197.918V281.084H198.24V0.229004Z" fill="#DAD5D5"/>
<path d="M188.833 0.229004H188.511V281.084H188.833V0.229004Z" fill="#DAD5D5"/>
<path d="M179.404 0.229004H179.082V281.084H179.404V0.229004Z" fill="#DAD5D5"/>
<path d="M169.997 0.229004H169.675V281.084H169.997V0.229004Z" fill="#DAD5D5"/>
<path d="M160.568 0.229004H160.246V281.084H160.568V0.229004Z" fill="#DAD5D5"/>
<path d="M151.161 0.229004H150.839V281.084H151.161V0.229004Z" fill="#DAD5D5"/>
<path d="M141.732 0.229004H141.41V281.084H141.732V0.229004Z" fill="#DAD5D5"/>
<path d="M132.325 0.229004H132.003V281.084H132.325V0.229004Z" fill="#DAD5D5"/>
<path d="M122.896 0.229004H122.574V281.084H122.896V0.229004Z" fill="#DAD5D5"/>
<path d="M113.489 0.229004H113.167V281.084H113.489V0.229004Z" fill="#DAD5D5"/>
<path d="M104.06 0.229004H103.738V281.084H104.06V0.229004Z" fill="#DAD5D5"/>
<path d="M94.6529 0.229004H94.3307V281.084H94.6529V0.229004Z" fill="#DAD5D5"/>
<path d="M85.2241 0.229004H84.9019V281.084H85.2241V0.229004Z" fill="#DAD5D5"/>
<path d="M75.8168 0.229004H75.4946V281.084H75.8168V0.229004Z" fill="#DAD5D5"/>
<path d="M66.3881 0.229004H66.0659V281.084H66.3881V0.229004Z" fill="#DAD5D5"/>
<path d="M56.9807 0.229004H56.6586V281.084H56.9807V0.229004Z" fill="#DAD5D5"/>
<path d="M47.5734 0.229004H47.2513V281.084H47.5734V0.229004Z" fill="#DAD5D5"/>
<path d="M38.1446 0.229004H37.8224V281.084H38.1446V0.229004Z" fill="#DAD5D5"/>
<path d="M28.7374 0.229004H28.4152V281.084H28.7374V0.229004Z" fill="#DAD5D5"/>
<path d="M19.3086 0.229004H18.9864V281.084H19.3086V0.229004Z" fill="#DAD5D5"/>
<path d="M9.90127 0.229004H9.5791V281.084H9.90127V0.229004Z" fill="#DAD5D5"/>
</svg>
