<svg width="1920" height="1081" viewBox="0 0 1920 1081" fill="none" xmlns="http://www.w3.org/2000/svg">
<line x1="1.25" y1="1.09278e-08" x2="1.24995" y2="1080" stroke="#CDCDCD" stroke-width="0.5"/>
<line x1="10.25" y1="1.09278e-08" x2="10.25" y2="1080" stroke="#CDCDCD" stroke-width="0.5"/>
<line x1="19.25" y1="1.09278e-08" x2="19.25" y2="1080" stroke="#CDCDCD" stroke-width="0.5"/>
<line x1="28.25" y1="1.09278e-08" x2="28.25" y2="1080" stroke="#CDCDCD" stroke-width="0.5"/>
<line x1="37.25" y1="1.09278e-08" x2="37.25" y2="1080" stroke="#CDCDCD" stroke-width="0.5"/>
<line x1="46.25" y1="1.09278e-08" x2="46.25" y2="1080" stroke="#CDCDCD" stroke-width="0.5"/>
<line x1="55.2502" y1="1.09278e-08" x2="55.2502" y2="1080" stroke="#CDCDCD" stroke-width="0.5"/>
<line x1="64.2505" y1="1.09278e-08" x2="64.2504" y2="1080" stroke="#CDCDCD" stroke-width="0.5"/>
<line x1="73.2505" y1="1.09278e-08" x2="73.2504" y2="1080" stroke="#CDCDCD" stroke-width="0.5"/>
<line x1="82.2505" y1="1.09278e-08" x2="82.2504" y2="1080" stroke="#CDCDCD" stroke-width="0.5"/>
<line x1="91.2505" y1="1.09278e-08" x2="91.2504" y2="1080" stroke="#CDCDCD" stroke-width="0.5"/>
<line x1="100.25" y1="1.09278e-08" x2="100.25" y2="1080" stroke="#CDCDCD" stroke-width="0.5"/>
<line x1="109.25" y1="1.09278e-08" x2="109.25" y2="1080" stroke="#CDCDCD" stroke-width="0.5"/>
<line x1="118.251" y1="1.09278e-08" x2="118.251" y2="1080" stroke="#CDCDCD" stroke-width="0.5"/>
<line x1="127.251" y1="1.09278e-08" x2="127.251" y2="1080" stroke="#CDCDCD" stroke-width="0.5"/>
<line x1="136.251" y1="1.09278e-08" x2="136.251" y2="1080" stroke="#CDCDCD" stroke-width="0.5"/>
<line x1="145.251" y1="1.09278e-08" x2="145.251" y2="1080" stroke="#CDCDCD" stroke-width="0.5"/>
<line x1="154.251" y1="1.09278e-08" x2="154.251" y2="1080" stroke="#CDCDCD" stroke-width="0.5"/>
<line x1="163.251" y1="1.09278e-08" x2="163.251" y2="1080" stroke="#CDCDCD" stroke-width="0.5"/>
<line x1="172.251" y1="1.09278e-08" x2="172.251" y2="1080" stroke="#CDCDCD" stroke-width="0.5"/>
<line x1="181.251" y1="1.09278e-08" x2="181.251" y2="1080" stroke="#CDCDCD" stroke-width="0.5"/>
<line x1="190.251" y1="1.09278e-08" x2="190.251" y2="1080" stroke="#CDCDCD" stroke-width="0.5"/>
<line x1="199.251" y1="1.09278e-08" x2="199.251" y2="1080" stroke="#CDCDCD" stroke-width="0.5"/>
<line x1="208.251" y1="1.09278e-08" x2="208.251" y2="1080" stroke="#CDCDCD" stroke-width="0.5"/>
<line x1="217.251" y1="1.09278e-08" x2="217.251" y2="1080" stroke="#CDCDCD" stroke-width="0.5"/>
<line x1="226.251" y1="1.09278e-08" x2="226.251" y2="1080" stroke="#CDCDCD" stroke-width="0.5"/>
<line x1="235.251" y1="1.09278e-08" x2="235.251" y2="1080" stroke="#CDCDCD" stroke-width="0.5"/>
<line x1="244.251" y1="1.09278e-08" x2="244.251" y2="1080" stroke="#CDCDCD" stroke-width="0.5"/>
<line x1="253.251" y1="1.09278e-08" x2="253.251" y2="1080" stroke="#CDCDCD" stroke-width="0.5"/>
<line x1="262.251" y1="1.09278e-08" x2="262.251" y2="1080" stroke="#CDCDCD" stroke-width="0.5"/>
<line x1="271.251" y1="1.09278e-08" x2="271.251" y2="1080" stroke="#CDCDCD" stroke-width="0.5"/>
<line x1="280.251" y1="1.09278e-08" x2="280.251" y2="1080" stroke="#CDCDCD" stroke-width="0.5"/>
<line x1="289.251" y1="1.09278e-08" x2="289.251" y2="1080" stroke="#CDCDCD" stroke-width="0.5"/>
<line x1="298.252" y1="1.09278e-08" x2="298.252" y2="1080" stroke="#CDCDCD" stroke-width="0.5"/>
<line x1="307.252" y1="1.09278e-08" x2="307.252" y2="1080" stroke="#CDCDCD" stroke-width="0.5"/>
<line x1="316.252" y1="1.09278e-08" x2="316.252" y2="1080" stroke="#CDCDCD" stroke-width="0.5"/>
<line x1="325.252" y1="1.09278e-08" x2="325.252" y2="1080" stroke="#CDCDCD" stroke-width="0.5"/>
<line x1="334.252" y1="1.09278e-08" x2="334.252" y2="1080" stroke="#CDCDCD" stroke-width="0.5"/>
<line x1="343.252" y1="1.09278e-08" x2="343.252" y2="1080" stroke="#CDCDCD" stroke-width="0.5"/>
<line x1="352.252" y1="1.09278e-08" x2="352.252" y2="1080" stroke="#CDCDCD" stroke-width="0.5"/>
<line x1="361.252" y1="1.09278e-08" x2="361.252" y2="1080" stroke="#CDCDCD" stroke-width="0.5"/>
<line x1="370.252" y1="1.09278e-08" x2="370.252" y2="1080" stroke="#CDCDCD" stroke-width="0.5"/>
<line x1="379.252" y1="1.09278e-08" x2="379.252" y2="1080" stroke="#CDCDCD" stroke-width="0.5"/>
<line x1="388.252" y1="1.09278e-08" x2="388.252" y2="1080" stroke="#CDCDCD" stroke-width="0.5"/>
<line x1="397.252" y1="1.09278e-08" x2="397.252" y2="1080" stroke="#CDCDCD" stroke-width="0.5"/>
<line x1="406.252" y1="1.09278e-08" x2="406.252" y2="1080" stroke="#CDCDCD" stroke-width="0.5"/>
<line x1="415.252" y1="1.09278e-08" x2="415.252" y2="1080" stroke="#CDCDCD" stroke-width="0.5"/>
<line x1="424.252" y1="1.09278e-08" x2="424.252" y2="1080" stroke="#CDCDCD" stroke-width="0.5"/>
<line x1="433.252" y1="1.09278e-08" x2="433.252" y2="1080" stroke="#CDCDCD" stroke-width="0.5"/>
<line x1="442.253" y1="1.09278e-08" x2="442.253" y2="1080" stroke="#CDCDCD" stroke-width="0.5"/>
<line x1="451.253" y1="1.09278e-08" x2="451.253" y2="1080" stroke="#CDCDCD" stroke-width="0.5"/>
<line x1="460.253" y1="1.09278e-08" x2="460.253" y2="1080" stroke="#CDCDCD" stroke-width="0.5"/>
<line x1="469.253" y1="1.09278e-08" x2="469.253" y2="1080" stroke="#CDCDCD" stroke-width="0.5"/>
<line x1="478.253" y1="1.09278e-08" x2="478.253" y2="1080" stroke="#CDCDCD" stroke-width="0.5"/>
<line x1="487.253" y1="1.09278e-08" x2="487.253" y2="1080" stroke="#CDCDCD" stroke-width="0.5"/>
<line x1="496.253" y1="1.09278e-08" x2="496.253" y2="1080" stroke="#CDCDCD" stroke-width="0.5"/>
<line x1="505.253" y1="1.09278e-08" x2="505.253" y2="1080" stroke="#CDCDCD" stroke-width="0.5"/>
<line x1="514.253" y1="1.09278e-08" x2="514.253" y2="1080" stroke="#CDCDCD" stroke-width="0.5"/>
<line x1="523.253" y1="1.09278e-08" x2="523.253" y2="1080" stroke="#CDCDCD" stroke-width="0.5"/>
<line x1="532.253" y1="1.09278e-08" x2="532.253" y2="1080" stroke="#CDCDCD" stroke-width="0.5"/>
<line x1="541.253" y1="1.09278e-08" x2="541.253" y2="1080" stroke="#CDCDCD" stroke-width="0.5"/>
<line x1="550.253" y1="1.09278e-08" x2="550.253" y2="1080" stroke="#CDCDCD" stroke-width="0.5"/>
<line x1="559.253" y1="1.09278e-08" x2="559.253" y2="1080" stroke="#CDCDCD" stroke-width="0.5"/>
<line x1="568.253" y1="1.09278e-08" x2="568.253" y2="1080" stroke="#CDCDCD" stroke-width="0.5"/>
<line x1="577.253" y1="1.09278e-08" x2="577.253" y2="1080" stroke="#CDCDCD" stroke-width="0.5"/>
<line x1="586.254" y1="1.09278e-08" x2="586.254" y2="1080" stroke="#CDCDCD" stroke-width="0.5"/>
<line x1="595.254" y1="1.09278e-08" x2="595.254" y2="1080" stroke="#CDCDCD" stroke-width="0.5"/>
<line x1="604.254" y1="1.09278e-08" x2="604.254" y2="1080" stroke="#CDCDCD" stroke-width="0.5"/>
<line x1="613.254" y1="1.09278e-08" x2="613.254" y2="1080" stroke="#CDCDCD" stroke-width="0.5"/>
<line x1="622.254" y1="1.09278e-08" x2="622.254" y2="1080" stroke="#CDCDCD" stroke-width="0.5"/>
<line x1="631.254" y1="1.09278e-08" x2="631.254" y2="1080" stroke="#CDCDCD" stroke-width="0.5"/>
<line x1="640.254" y1="1.09278e-08" x2="640.254" y2="1080" stroke="#CDCDCD" stroke-width="0.5"/>
<line x1="649.254" y1="1.09278e-08" x2="649.254" y2="1080" stroke="#CDCDCD" stroke-width="0.5"/>
<line x1="658.254" y1="1.09278e-08" x2="658.254" y2="1080" stroke="#CDCDCD" stroke-width="0.5"/>
<line x1="667.254" y1="1.09278e-08" x2="667.254" y2="1080" stroke="#CDCDCD" stroke-width="0.5"/>
<line x1="676.254" y1="1.09278e-08" x2="676.254" y2="1080" stroke="#CDCDCD" stroke-width="0.5"/>
<line x1="685.254" y1="1.09278e-08" x2="685.254" y2="1080" stroke="#CDCDCD" stroke-width="0.5"/>
<line x1="694.254" y1="1.09278e-08" x2="694.254" y2="1080" stroke="#CDCDCD" stroke-width="0.5"/>
<line x1="703.254" y1="1.09278e-08" x2="703.254" y2="1080" stroke="#CDCDCD" stroke-width="0.5"/>
<line x1="712.254" y1="1.09278e-08" x2="712.254" y2="1080" stroke="#CDCDCD" stroke-width="0.5"/>
<line x1="721.254" y1="1.09278e-08" x2="721.254" y2="1080" stroke="#CDCDCD" stroke-width="0.5"/>
<line x1="730.255" y1="1.09278e-08" x2="730.255" y2="1080" stroke="#CDCDCD" stroke-width="0.5"/>
<line x1="739.255" y1="1.09278e-08" x2="739.255" y2="1080" stroke="#CDCDCD" stroke-width="0.5"/>
<line x1="748.255" y1="1.09278e-08" x2="748.255" y2="1080" stroke="#CDCDCD" stroke-width="0.5"/>
<line x1="757.255" y1="1.09278e-08" x2="757.255" y2="1080" stroke="#CDCDCD" stroke-width="0.5"/>
<line x1="766.255" y1="1.09278e-08" x2="766.255" y2="1080" stroke="#CDCDCD" stroke-width="0.5"/>
<line x1="775.255" y1="1.09278e-08" x2="775.255" y2="1080" stroke="#CDCDCD" stroke-width="0.5"/>
<line x1="784.255" y1="1.09278e-08" x2="784.255" y2="1080" stroke="#CDCDCD" stroke-width="0.5"/>
<line x1="793.255" y1="1.09278e-08" x2="793.255" y2="1080" stroke="#CDCDCD" stroke-width="0.5"/>
<line x1="802.255" y1="1.09278e-08" x2="802.255" y2="1080" stroke="#CDCDCD" stroke-width="0.5"/>
<line x1="811.255" y1="1.09278e-08" x2="811.255" y2="1080" stroke="#CDCDCD" stroke-width="0.5"/>
<line x1="820.255" y1="1.09278e-08" x2="820.255" y2="1080" stroke="#CDCDCD" stroke-width="0.5"/>
<line x1="829.255" y1="1.09278e-08" x2="829.255" y2="1080" stroke="#CDCDCD" stroke-width="0.5"/>
<line x1="838.255" y1="1.09278e-08" x2="838.255" y2="1080" stroke="#CDCDCD" stroke-width="0.5"/>
<line x1="847.255" y1="1.09278e-08" x2="847.255" y2="1080" stroke="#CDCDCD" stroke-width="0.5"/>
<line x1="856.255" y1="1.09278e-08" x2="856.255" y2="1080" stroke="#CDCDCD" stroke-width="0.5"/>
<line x1="865.255" y1="1.09278e-08" x2="865.255" y2="1080" stroke="#CDCDCD" stroke-width="0.5"/>
<line x1="874.256" y1="1.09278e-08" x2="874.256" y2="1080" stroke="#CDCDCD" stroke-width="0.5"/>
<line x1="883.256" y1="1.09278e-08" x2="883.256" y2="1080" stroke="#CDCDCD" stroke-width="0.5"/>
<line x1="892.256" y1="1.09278e-08" x2="892.256" y2="1080" stroke="#CDCDCD" stroke-width="0.5"/>
<line x1="901.256" y1="1.09278e-08" x2="901.256" y2="1080" stroke="#CDCDCD" stroke-width="0.5"/>
<line x1="910.256" y1="1.09278e-08" x2="910.256" y2="1080" stroke="#CDCDCD" stroke-width="0.5"/>
<line x1="919.256" y1="1.09278e-08" x2="919.256" y2="1080" stroke="#CDCDCD" stroke-width="0.5"/>
<line x1="928.256" y1="1.09278e-08" x2="928.256" y2="1080" stroke="#CDCDCD" stroke-width="0.5"/>
<line x1="937.256" y1="1.09278e-08" x2="937.256" y2="1080" stroke="#CDCDCD" stroke-width="0.5"/>
<line x1="946.256" y1="1.09278e-08" x2="946.256" y2="1080" stroke="#CDCDCD" stroke-width="0.5"/>
<line x1="955.256" y1="1.09278e-08" x2="955.256" y2="1080" stroke="#CDCDCD" stroke-width="0.5"/>
<line x1="964.256" y1="1.09278e-08" x2="964.256" y2="1080" stroke="#CDCDCD" stroke-width="0.5"/>
<line x1="973.256" y1="1.09278e-08" x2="973.256" y2="1080" stroke="#CDCDCD" stroke-width="0.5"/>
<line x1="982.256" y1="1.09278e-08" x2="982.256" y2="1080" stroke="#CDCDCD" stroke-width="0.5"/>
<line x1="991.256" y1="1.09278e-08" x2="991.256" y2="1080" stroke="#CDCDCD" stroke-width="0.5"/>
<line x1="1000.26" y1="1.09278e-08" x2="1000.26" y2="1080" stroke="#CDCDCD" stroke-width="0.5"/>
<line x1="1009.26" y1="1.09278e-08" x2="1009.26" y2="1080" stroke="#CDCDCD" stroke-width="0.5"/>
<line x1="1018.26" y1="1.09278e-08" x2="1018.26" y2="1080" stroke="#CDCDCD" stroke-width="0.5"/>
<line x1="1027.26" y1="1.09278e-08" x2="1027.26" y2="1080" stroke="#CDCDCD" stroke-width="0.5"/>
<line x1="1036.26" y1="1.09278e-08" x2="1036.26" y2="1080" stroke="#CDCDCD" stroke-width="0.5"/>
<line x1="1045.26" y1="1.09278e-08" x2="1045.26" y2="1080" stroke="#CDCDCD" stroke-width="0.5"/>
<line x1="1054.26" y1="1.09278e-08" x2="1054.26" y2="1080" stroke="#CDCDCD" stroke-width="0.5"/>
<line x1="1063.26" y1="1.09278e-08" x2="1063.26" y2="1080" stroke="#CDCDCD" stroke-width="0.5"/>
<line x1="1072.26" y1="1.09278e-08" x2="1072.26" y2="1080" stroke="#CDCDCD" stroke-width="0.5"/>
<line x1="1081.26" y1="1.09278e-08" x2="1081.26" y2="1080" stroke="#CDCDCD" stroke-width="0.5"/>
<line x1="1090.26" y1="1.09278e-08" x2="1090.26" y2="1080" stroke="#CDCDCD" stroke-width="0.5"/>
<line x1="1099.26" y1="1.09278e-08" x2="1099.26" y2="1080" stroke="#CDCDCD" stroke-width="0.5"/>
<line x1="1108.26" y1="1.09278e-08" x2="1108.26" y2="1080" stroke="#CDCDCD" stroke-width="0.5"/>
<line x1="1117.26" y1="1.09278e-08" x2="1117.26" y2="1080" stroke="#CDCDCD" stroke-width="0.5"/>
<line x1="1126.26" y1="1.09278e-08" x2="1126.26" y2="1080" stroke="#CDCDCD" stroke-width="0.5"/>
<line x1="1135.26" y1="1.09278e-08" x2="1135.26" y2="1080" stroke="#CDCDCD" stroke-width="0.5"/>
<line x1="1144.26" y1="1.09278e-08" x2="1144.26" y2="1080" stroke="#CDCDCD" stroke-width="0.5"/>
<line x1="1153.26" y1="1.09278e-08" x2="1153.26" y2="1080" stroke="#CDCDCD" stroke-width="0.5"/>
<line x1="1162.26" y1="1.09278e-08" x2="1162.26" y2="1080" stroke="#CDCDCD" stroke-width="0.5"/>
<line x1="1171.26" y1="1.09278e-08" x2="1171.26" y2="1080" stroke="#CDCDCD" stroke-width="0.5"/>
<line x1="1180.26" y1="1.09278e-08" x2="1180.26" y2="1080" stroke="#CDCDCD" stroke-width="0.5"/>
<line x1="1189.26" y1="1.09278e-08" x2="1189.26" y2="1080" stroke="#CDCDCD" stroke-width="0.5"/>
<line x1="1198.26" y1="1.09278e-08" x2="1198.26" y2="1080" stroke="#CDCDCD" stroke-width="0.5"/>
<line x1="1207.26" y1="1.09278e-08" x2="1207.26" y2="1080" stroke="#CDCDCD" stroke-width="0.5"/>
<line x1="1216.26" y1="1.09278e-08" x2="1216.26" y2="1080" stroke="#CDCDCD" stroke-width="0.5"/>
<line x1="1225.26" y1="1.09278e-08" x2="1225.26" y2="1080" stroke="#CDCDCD" stroke-width="0.5"/>
<line x1="1234.26" y1="1.09278e-08" x2="1234.26" y2="1080" stroke="#CDCDCD" stroke-width="0.5"/>
<line x1="1243.26" y1="1.09278e-08" x2="1243.26" y2="1080" stroke="#CDCDCD" stroke-width="0.5"/>
<line x1="1252.26" y1="1.09278e-08" x2="1252.26" y2="1080" stroke="#CDCDCD" stroke-width="0.5"/>
<line x1="1261.26" y1="1.09278e-08" x2="1261.26" y2="1080" stroke="#CDCDCD" stroke-width="0.5"/>
<line x1="1270.26" y1="1.09278e-08" x2="1270.26" y2="1080" stroke="#CDCDCD" stroke-width="0.5"/>
<line x1="1279.26" y1="1.09278e-08" x2="1279.26" y2="1080" stroke="#CDCDCD" stroke-width="0.5"/>
<line x1="1288.26" y1="1.09278e-08" x2="1288.26" y2="1080" stroke="#CDCDCD" stroke-width="0.5"/>
<line x1="1297.26" y1="1.09278e-08" x2="1297.26" y2="1080" stroke="#CDCDCD" stroke-width="0.5"/>
<line x1="1306.26" y1="1.09278e-08" x2="1306.26" y2="1080" stroke="#CDCDCD" stroke-width="0.5"/>
<line x1="1315.26" y1="1.09278e-08" x2="1315.26" y2="1080" stroke="#CDCDCD" stroke-width="0.5"/>
<line x1="1324.26" y1="1.09278e-08" x2="1324.26" y2="1080" stroke="#CDCDCD" stroke-width="0.5"/>
<line x1="1333.26" y1="1.09278e-08" x2="1333.26" y2="1080" stroke="#CDCDCD" stroke-width="0.5"/>
<line x1="1342.26" y1="1.09278e-08" x2="1342.26" y2="1080" stroke="#CDCDCD" stroke-width="0.5"/>
<line x1="1351.26" y1="1.09278e-08" x2="1351.26" y2="1080" stroke="#CDCDCD" stroke-width="0.5"/>
<line x1="1360.26" y1="1.09278e-08" x2="1360.26" y2="1080" stroke="#CDCDCD" stroke-width="0.5"/>
<line x1="1369.26" y1="1.09278e-08" x2="1369.26" y2="1080" stroke="#CDCDCD" stroke-width="0.5"/>
<line x1="1378.26" y1="1.09278e-08" x2="1378.26" y2="1080" stroke="#CDCDCD" stroke-width="0.5"/>
<line x1="1387.26" y1="1.09278e-08" x2="1387.26" y2="1080" stroke="#CDCDCD" stroke-width="0.5"/>
<line x1="1396.26" y1="1.09278e-08" x2="1396.26" y2="1080" stroke="#CDCDCD" stroke-width="0.5"/>
<line x1="1405.26" y1="1.09278e-08" x2="1405.26" y2="1080" stroke="#CDCDCD" stroke-width="0.5"/>
<line x1="1414.26" y1="1.09278e-08" x2="1414.26" y2="1080" stroke="#CDCDCD" stroke-width="0.5"/>
<line x1="1423.26" y1="1.09278e-08" x2="1423.26" y2="1080" stroke="#CDCDCD" stroke-width="0.5"/>
<line x1="1432.26" y1="1.09278e-08" x2="1432.26" y2="1080" stroke="#CDCDCD" stroke-width="0.5"/>
<line x1="1441.26" y1="1.09278e-08" x2="1441.26" y2="1080" stroke="#CDCDCD" stroke-width="0.5"/>
<line x1="1450.26" y1="1.09278e-08" x2="1450.26" y2="1080" stroke="#CDCDCD" stroke-width="0.5"/>
<line x1="1459.26" y1="1.09278e-08" x2="1459.26" y2="1080" stroke="#CDCDCD" stroke-width="0.5"/>
<line x1="1468.26" y1="1.09278e-08" x2="1468.26" y2="1080" stroke="#CDCDCD" stroke-width="0.5"/>
<line x1="1477.26" y1="1.09278e-08" x2="1477.26" y2="1080" stroke="#CDCDCD" stroke-width="0.5"/>
<line x1="1486.26" y1="1.09278e-08" x2="1486.26" y2="1080" stroke="#CDCDCD" stroke-width="0.5"/>
<line x1="1495.26" y1="1.09278e-08" x2="1495.26" y2="1080" stroke="#CDCDCD" stroke-width="0.5"/>
<line x1="1504.26" y1="1.09278e-08" x2="1504.26" y2="1080" stroke="#CDCDCD" stroke-width="0.5"/>
<line x1="1513.26" y1="1.09278e-08" x2="1513.26" y2="1080" stroke="#CDCDCD" stroke-width="0.5"/>
<line x1="1522.26" y1="1.09278e-08" x2="1522.26" y2="1080" stroke="#CDCDCD" stroke-width="0.5"/>
<line x1="1531.26" y1="1.09278e-08" x2="1531.26" y2="1080" stroke="#CDCDCD" stroke-width="0.5"/>
<line x1="1540.26" y1="1.09278e-08" x2="1540.26" y2="1080" stroke="#CDCDCD" stroke-width="0.5"/>
<line x1="1549.26" y1="1.09278e-08" x2="1549.26" y2="1080" stroke="#CDCDCD" stroke-width="0.5"/>
<line x1="1558.26" y1="1.09278e-08" x2="1558.26" y2="1080" stroke="#CDCDCD" stroke-width="0.5"/>
<line x1="1567.26" y1="1.09278e-08" x2="1567.26" y2="1080" stroke="#CDCDCD" stroke-width="0.5"/>
<line x1="1576.26" y1="1.09278e-08" x2="1576.26" y2="1080" stroke="#CDCDCD" stroke-width="0.5"/>
<line x1="1585.26" y1="1.09278e-08" x2="1585.26" y2="1080" stroke="#CDCDCD" stroke-width="0.5"/>
<line x1="1594.26" y1="1.09278e-08" x2="1594.26" y2="1080" stroke="#CDCDCD" stroke-width="0.5"/>
<line x1="1603.26" y1="1.09278e-08" x2="1603.26" y2="1080" stroke="#CDCDCD" stroke-width="0.5"/>
<line x1="1612.26" y1="1.09278e-08" x2="1612.26" y2="1080" stroke="#CDCDCD" stroke-width="0.5"/>
<line x1="1621.26" y1="1.09278e-08" x2="1621.26" y2="1080" stroke="#CDCDCD" stroke-width="0.5"/>
<line x1="1630.26" y1="1.09278e-08" x2="1630.26" y2="1080" stroke="#CDCDCD" stroke-width="0.5"/>
<line x1="1639.26" y1="1.09278e-08" x2="1639.26" y2="1080" stroke="#CDCDCD" stroke-width="0.5"/>
<line x1="1648.26" y1="1.09278e-08" x2="1648.26" y2="1080" stroke="#CDCDCD" stroke-width="0.5"/>
<line x1="1657.26" y1="1.09278e-08" x2="1657.26" y2="1080" stroke="#CDCDCD" stroke-width="0.5"/>
<line x1="1666.26" y1="1.09278e-08" x2="1666.26" y2="1080" stroke="#CDCDCD" stroke-width="0.5"/>
<line x1="1675.26" y1="1.09278e-08" x2="1675.26" y2="1080" stroke="#CDCDCD" stroke-width="0.5"/>
<line x1="1684.26" y1="1.09278e-08" x2="1684.26" y2="1080" stroke="#CDCDCD" stroke-width="0.5"/>
<line x1="1693.26" y1="1.09278e-08" x2="1693.26" y2="1080" stroke="#CDCDCD" stroke-width="0.5"/>
<line x1="1702.26" y1="1.09278e-08" x2="1702.26" y2="1080" stroke="#CDCDCD" stroke-width="0.5"/>
<line x1="1711.26" y1="1.09278e-08" x2="1711.26" y2="1080" stroke="#CDCDCD" stroke-width="0.5"/>
<line x1="1720.26" y1="1.09278e-08" x2="1720.26" y2="1080" stroke="#CDCDCD" stroke-width="0.5"/>
<line x1="1729.26" y1="1.09278e-08" x2="1729.26" y2="1080" stroke="#CDCDCD" stroke-width="0.5"/>
<line x1="1738.26" y1="1.09278e-08" x2="1738.26" y2="1080" stroke="#CDCDCD" stroke-width="0.5"/>
<line x1="1747.26" y1="1.09278e-08" x2="1747.26" y2="1080" stroke="#CDCDCD" stroke-width="0.5"/>
<line x1="1756.26" y1="1.09278e-08" x2="1756.26" y2="1080" stroke="#CDCDCD" stroke-width="0.5"/>
<line x1="1765.26" y1="1.09278e-08" x2="1765.26" y2="1080" stroke="#CDCDCD" stroke-width="0.5"/>
<line x1="1774.26" y1="1.09278e-08" x2="1774.26" y2="1080" stroke="#CDCDCD" stroke-width="0.5"/>
<line x1="1783.26" y1="1.09278e-08" x2="1783.26" y2="1080" stroke="#CDCDCD" stroke-width="0.5"/>
<line x1="1792.26" y1="1.09278e-08" x2="1792.26" y2="1080" stroke="#CDCDCD" stroke-width="0.5"/>
<line x1="1801.26" y1="1.09278e-08" x2="1801.26" y2="1080" stroke="#CDCDCD" stroke-width="0.5"/>
<line x1="1810.26" y1="1.09278e-08" x2="1810.26" y2="1080" stroke="#CDCDCD" stroke-width="0.5"/>
<line x1="1819.26" y1="1.09278e-08" x2="1819.26" y2="1080" stroke="#CDCDCD" stroke-width="0.5"/>
<line x1="1828.26" y1="1.09278e-08" x2="1828.26" y2="1080" stroke="#CDCDCD" stroke-width="0.5"/>
<line x1="1837.26" y1="1.09278e-08" x2="1837.26" y2="1080" stroke="#CDCDCD" stroke-width="0.5"/>
<line x1="1846.26" y1="1.09278e-08" x2="1846.26" y2="1080" stroke="#CDCDCD" stroke-width="0.5"/>
<line x1="1855.26" y1="1.09278e-08" x2="1855.26" y2="1080" stroke="#CDCDCD" stroke-width="0.5"/>
<line x1="1864.26" y1="1.09278e-08" x2="1864.26" y2="1080" stroke="#CDCDCD" stroke-width="0.5"/>
<line x1="1873.26" y1="1.09278e-08" x2="1873.26" y2="1080" stroke="#CDCDCD" stroke-width="0.5"/>
<line x1="1882.26" y1="1.09278e-08" x2="1882.26" y2="1080" stroke="#CDCDCD" stroke-width="0.5"/>
<line x1="1891.26" y1="1.09278e-08" x2="1891.26" y2="1080" stroke="#CDCDCD" stroke-width="0.5"/>
<line x1="1900.26" y1="1.09278e-08" x2="1900.26" y2="1080" stroke="#CDCDCD" stroke-width="0.5"/>
<line x1="1909.26" y1="1.09278e-08" x2="1909.26" y2="1080" stroke="#CDCDCD" stroke-width="0.5"/>
<line x1="1918.26" y1="1.09278e-08" x2="1918.26" y2="1080" stroke="#CDCDCD" stroke-width="0.5"/>
<line x1="1920" y1="0.250183" x2="-2.18556e-08" y2="0.250015" stroke="#CDCDCD" stroke-width="0.5"/>
<line x1="1920" y1="6.25034" x2="-2.18556e-08" y2="6.25017" stroke="#CDCDCD" stroke-width="0.5"/>
<line x1="1920" y1="12.2505" x2="-2.18556e-08" y2="12.2503" stroke="#CDCDCD" stroke-width="0.5"/>
<line x1="1920" y1="18.2507" x2="-2.18556e-08" y2="18.2505" stroke="#CDCDCD" stroke-width="0.5"/>
<line x1="1920" y1="24.2509" x2="-2.18556e-08" y2="24.2507" stroke="#CDCDCD" stroke-width="0.5"/>
<line x1="1920" y1="30.251" x2="-2.18556e-08" y2="30.2508" stroke="#CDCDCD" stroke-width="0.5"/>
<line x1="1920" y1="36.2512" x2="-2.18556e-08" y2="36.251" stroke="#CDCDCD" stroke-width="0.5"/>
<line x1="1920" y1="42.2513" x2="-2.18556e-08" y2="42.2512" stroke="#CDCDCD" stroke-width="0.5"/>
<line x1="1920" y1="48.2515" x2="-2.18556e-08" y2="48.2514" stroke="#CDCDCD" stroke-width="0.5"/>
<line x1="1920" y1="54.2517" x2="-2.18556e-08" y2="54.2515" stroke="#CDCDCD" stroke-width="0.5"/>
<line x1="1920" y1="60.2518" x2="-2.18556e-08" y2="60.2517" stroke="#CDCDCD" stroke-width="0.5"/>
<line x1="1920" y1="66.252" x2="-2.18556e-08" y2="66.2518" stroke="#CDCDCD" stroke-width="0.5"/>
<line x1="1920" y1="72.2522" x2="-2.18556e-08" y2="72.252" stroke="#CDCDCD" stroke-width="0.5"/>
<line x1="1920" y1="78.2523" x2="-2.18556e-08" y2="78.2522" stroke="#CDCDCD" stroke-width="0.5"/>
<line x1="1920" y1="84.2525" x2="-2.18556e-08" y2="84.2523" stroke="#CDCDCD" stroke-width="0.5"/>
<line x1="1920" y1="90.2527" x2="-2.18556e-08" y2="90.2525" stroke="#CDCDCD" stroke-width="0.5"/>
<line x1="1920" y1="96.2529" x2="-2.18556e-08" y2="96.2527" stroke="#CDCDCD" stroke-width="0.5"/>
<line x1="1920" y1="102.253" x2="-2.18556e-08" y2="102.253" stroke="#CDCDCD" stroke-width="0.5"/>
<line x1="1920" y1="108.253" x2="-2.18556e-08" y2="108.253" stroke="#CDCDCD" stroke-width="0.5"/>
<line x1="1920" y1="114.253" x2="-2.18556e-08" y2="114.253" stroke="#CDCDCD" stroke-width="0.5"/>
<line x1="1920" y1="120.254" x2="-2.18556e-08" y2="120.253" stroke="#CDCDCD" stroke-width="0.5"/>
<line x1="1920" y1="126.254" x2="-2.18556e-08" y2="126.254" stroke="#CDCDCD" stroke-width="0.5"/>
<line x1="1920" y1="132.254" x2="-2.18556e-08" y2="132.254" stroke="#CDCDCD" stroke-width="0.5"/>
<line x1="1920" y1="138.254" x2="-2.18556e-08" y2="138.254" stroke="#CDCDCD" stroke-width="0.5"/>
<line x1="1920" y1="144.254" x2="-2.18556e-08" y2="144.254" stroke="#CDCDCD" stroke-width="0.5"/>
<line x1="1920" y1="150.255" x2="-2.18556e-08" y2="150.254" stroke="#CDCDCD" stroke-width="0.5"/>
<line x1="1920" y1="156.255" x2="-2.18556e-08" y2="156.255" stroke="#CDCDCD" stroke-width="0.5"/>
<line x1="1920" y1="162.255" x2="-2.18556e-08" y2="162.255" stroke="#CDCDCD" stroke-width="0.5"/>
<line x1="1920" y1="168.255" x2="-2.18556e-08" y2="168.255" stroke="#CDCDCD" stroke-width="0.5"/>
<line x1="1920" y1="174.255" x2="-2.18556e-08" y2="174.255" stroke="#CDCDCD" stroke-width="0.5"/>
<line x1="1920" y1="180.255" x2="-2.18556e-08" y2="180.255" stroke="#CDCDCD" stroke-width="0.5"/>
<line x1="1920" y1="186.255" x2="-2.18556e-08" y2="186.255" stroke="#CDCDCD" stroke-width="0.5"/>
<line x1="1920" y1="192.256" x2="-2.18556e-08" y2="192.255" stroke="#CDCDCD" stroke-width="0.5"/>
<line x1="1920" y1="198.256" x2="-2.18556e-08" y2="198.256" stroke="#CDCDCD" stroke-width="0.5"/>
<line x1="1920" y1="204.256" x2="-2.18556e-08" y2="204.256" stroke="#CDCDCD" stroke-width="0.5"/>
<line x1="1920" y1="210.256" x2="-2.18556e-08" y2="210.256" stroke="#CDCDCD" stroke-width="0.5"/>
<line x1="1920" y1="216.256" x2="-2.18556e-08" y2="216.256" stroke="#CDCDCD" stroke-width="0.5"/>
<line x1="1920" y1="222.256" x2="-2.18556e-08" y2="222.256" stroke="#CDCDCD" stroke-width="0.5"/>
<line x1="1920" y1="228.257" x2="-2.18556e-08" y2="228.256" stroke="#CDCDCD" stroke-width="0.5"/>
<line x1="1920" y1="234.257" x2="-2.18556e-08" y2="234.257" stroke="#CDCDCD" stroke-width="0.5"/>
<line x1="1920" y1="240.257" x2="-2.18556e-08" y2="240.257" stroke="#CDCDCD" stroke-width="0.5"/>
<line x1="1920" y1="246.257" x2="-2.18556e-08" y2="246.257" stroke="#CDCDCD" stroke-width="0.5"/>
<line x1="1920" y1="252.257" x2="-2.18556e-08" y2="252.257" stroke="#CDCDCD" stroke-width="0.5"/>
<line x1="1920" y1="258.257" x2="-2.18556e-08" y2="258.257" stroke="#CDCDCD" stroke-width="0.5"/>
<line x1="1920" y1="264.258" x2="-2.18556e-08" y2="264.257" stroke="#CDCDCD" stroke-width="0.5"/>
<line x1="1920" y1="270.258" x2="-2.18556e-08" y2="270.258" stroke="#CDCDCD" stroke-width="0.5"/>
<line x1="1920" y1="276.258" x2="-2.18556e-08" y2="276.258" stroke="#CDCDCD" stroke-width="0.5"/>
<line x1="1920" y1="282.258" x2="-2.18556e-08" y2="282.258" stroke="#CDCDCD" stroke-width="0.5"/>
<line x1="1920" y1="288.258" x2="-2.18556e-08" y2="288.258" stroke="#CDCDCD" stroke-width="0.5"/>
<line x1="1920" y1="294.258" x2="-2.18556e-08" y2="294.258" stroke="#CDCDCD" stroke-width="0.5"/>
<line x1="1920" y1="300.259" x2="-2.18556e-08" y2="300.258" stroke="#CDCDCD" stroke-width="0.5"/>
<line x1="1920" y1="306.259" x2="-2.18556e-08" y2="306.259" stroke="#CDCDCD" stroke-width="0.5"/>
<line x1="1920" y1="312.259" x2="-2.18556e-08" y2="312.259" stroke="#CDCDCD" stroke-width="0.5"/>
<line x1="1920" y1="318.259" x2="-2.18556e-08" y2="318.259" stroke="#CDCDCD" stroke-width="0.5"/>
<line x1="1920" y1="324.259" x2="-2.18556e-08" y2="324.259" stroke="#CDCDCD" stroke-width="0.5"/>
<line x1="1920" y1="330.26" x2="-2.18556e-08" y2="330.259" stroke="#CDCDCD" stroke-width="0.5"/>
<line x1="1920" y1="336.26" x2="-2.18556e-08" y2="336.26" stroke="#CDCDCD" stroke-width="0.5"/>
<line x1="1920" y1="342.26" x2="-2.18556e-08" y2="342.26" stroke="#CDCDCD" stroke-width="0.5"/>
<line x1="1920" y1="348.26" x2="-2.18556e-08" y2="348.26" stroke="#CDCDCD" stroke-width="0.5"/>
<line x1="1920" y1="354.26" x2="-2.18556e-08" y2="354.26" stroke="#CDCDCD" stroke-width="0.5"/>
<line x1="1920" y1="360.26" x2="-2.18556e-08" y2="360.26" stroke="#CDCDCD" stroke-width="0.5"/>
<line x1="1920" y1="366.261" x2="-2.18556e-08" y2="366.26" stroke="#CDCDCD" stroke-width="0.5"/>
<line x1="1920" y1="372.261" x2="-2.18556e-08" y2="372.261" stroke="#CDCDCD" stroke-width="0.5"/>
<line x1="1920" y1="378.261" x2="-2.18556e-08" y2="378.261" stroke="#CDCDCD" stroke-width="0.5"/>
<line x1="1920" y1="384.261" x2="-2.18556e-08" y2="384.261" stroke="#CDCDCD" stroke-width="0.5"/>
<line x1="1920" y1="390.261" x2="-2.18556e-08" y2="390.261" stroke="#CDCDCD" stroke-width="0.5"/>
<line x1="1920" y1="396.262" x2="-2.18556e-08" y2="396.261" stroke="#CDCDCD" stroke-width="0.5"/>
<line x1="1920" y1="402.262" x2="-2.18556e-08" y2="402.262" stroke="#CDCDCD" stroke-width="0.5"/>
<line x1="1920" y1="408.262" x2="-2.18556e-08" y2="408.262" stroke="#CDCDCD" stroke-width="0.5"/>
<line x1="1920" y1="414.262" x2="-2.18556e-08" y2="414.262" stroke="#CDCDCD" stroke-width="0.5"/>
<line x1="1920" y1="420.262" x2="-2.18556e-08" y2="420.262" stroke="#CDCDCD" stroke-width="0.5"/>
<line x1="1920" y1="426.263" x2="-2.18556e-08" y2="426.262" stroke="#CDCDCD" stroke-width="0.5"/>
<line x1="1920" y1="432.263" x2="-2.18556e-08" y2="432.263" stroke="#CDCDCD" stroke-width="0.5"/>
<line x1="1920" y1="438.263" x2="-2.18556e-08" y2="438.263" stroke="#CDCDCD" stroke-width="0.5"/>
<line x1="1920" y1="444.263" x2="-2.18556e-08" y2="444.263" stroke="#CDCDCD" stroke-width="0.5"/>
<line x1="1920" y1="450.263" x2="-2.18556e-08" y2="450.263" stroke="#CDCDCD" stroke-width="0.5"/>
<line x1="1920" y1="456.263" x2="-2.18556e-08" y2="456.263" stroke="#CDCDCD" stroke-width="0.5"/>
<line x1="1920" y1="462.264" x2="-2.18556e-08" y2="462.263" stroke="#CDCDCD" stroke-width="0.5"/>
<line x1="1920" y1="468.264" x2="-2.18556e-08" y2="468.264" stroke="#CDCDCD" stroke-width="0.5"/>
<line x1="1920" y1="474.264" x2="-2.18556e-08" y2="474.264" stroke="#CDCDCD" stroke-width="0.5"/>
<line x1="1920" y1="480.264" x2="-2.18556e-08" y2="480.264" stroke="#CDCDCD" stroke-width="0.5"/>
<line x1="1920" y1="486.264" x2="-2.18556e-08" y2="486.264" stroke="#CDCDCD" stroke-width="0.5"/>
<line x1="1920" y1="492.265" x2="-2.18556e-08" y2="492.264" stroke="#CDCDCD" stroke-width="0.5"/>
<line x1="1920" y1="498.265" x2="-2.18556e-08" y2="498.265" stroke="#CDCDCD" stroke-width="0.5"/>
<line x1="1920" y1="504.265" x2="-2.18556e-08" y2="504.265" stroke="#CDCDCD" stroke-width="0.5"/>
<line x1="1920" y1="510.265" x2="-2.18556e-08" y2="510.265" stroke="#CDCDCD" stroke-width="0.5"/>
<line x1="1920" y1="516.265" x2="-2.18556e-08" y2="516.265" stroke="#CDCDCD" stroke-width="0.5"/>
<line x1="1920" y1="522.265" x2="-2.18556e-08" y2="522.265" stroke="#CDCDCD" stroke-width="0.5"/>
<line x1="1920" y1="528.266" x2="-2.18556e-08" y2="528.265" stroke="#CDCDCD" stroke-width="0.5"/>
<line x1="1920" y1="534.266" x2="-2.18556e-08" y2="534.266" stroke="#CDCDCD" stroke-width="0.5"/>
<line x1="1920" y1="540.266" x2="-2.18556e-08" y2="540.266" stroke="#CDCDCD" stroke-width="0.5"/>
<line x1="1920" y1="546.266" x2="-2.18556e-08" y2="546.266" stroke="#CDCDCD" stroke-width="0.5"/>
<line x1="1920" y1="552.266" x2="-2.18556e-08" y2="552.266" stroke="#CDCDCD" stroke-width="0.5"/>
<line x1="1920" y1="558.267" x2="-2.18556e-08" y2="558.266" stroke="#CDCDCD" stroke-width="0.5"/>
<line x1="1920" y1="564.267" x2="-2.18556e-08" y2="564.267" stroke="#CDCDCD" stroke-width="0.5"/>
<line x1="1920" y1="570.267" x2="-2.18556e-08" y2="570.267" stroke="#CDCDCD" stroke-width="0.5"/>
<line x1="1920" y1="576.267" x2="-2.18556e-08" y2="576.267" stroke="#CDCDCD" stroke-width="0.5"/>
<line x1="1920" y1="582.267" x2="-2.18556e-08" y2="582.267" stroke="#CDCDCD" stroke-width="0.5"/>
<line x1="1920" y1="588.267" x2="-2.18556e-08" y2="588.267" stroke="#CDCDCD" stroke-width="0.5"/>
<line x1="1920" y1="594.268" x2="-2.18556e-08" y2="594.267" stroke="#CDCDCD" stroke-width="0.5"/>
<line x1="1920" y1="600.268" x2="-2.18556e-08" y2="600.268" stroke="#CDCDCD" stroke-width="0.5"/>
<line x1="1920" y1="606.268" x2="-2.18556e-08" y2="606.268" stroke="#CDCDCD" stroke-width="0.5"/>
<line x1="1920" y1="612.268" x2="-2.18556e-08" y2="612.268" stroke="#CDCDCD" stroke-width="0.5"/>
<line x1="1920" y1="618.268" x2="-2.18556e-08" y2="618.268" stroke="#CDCDCD" stroke-width="0.5"/>
<line x1="1920" y1="624.269" x2="-2.18556e-08" y2="624.268" stroke="#CDCDCD" stroke-width="0.5"/>
<line x1="1920" y1="630.269" x2="-2.18556e-08" y2="630.269" stroke="#CDCDCD" stroke-width="0.5"/>
<line x1="1920" y1="636.269" x2="-2.18556e-08" y2="636.269" stroke="#CDCDCD" stroke-width="0.5"/>
<line x1="1920" y1="642.269" x2="-2.18556e-08" y2="642.269" stroke="#CDCDCD" stroke-width="0.5"/>
<line x1="1920" y1="648.269" x2="-2.18556e-08" y2="648.269" stroke="#CDCDCD" stroke-width="0.5"/>
<line x1="1920" y1="654.27" x2="-2.18556e-08" y2="654.269" stroke="#CDCDCD" stroke-width="0.5"/>
<line x1="1920" y1="660.27" x2="-2.18556e-08" y2="660.269" stroke="#CDCDCD" stroke-width="0.5"/>
<line x1="1920" y1="666.27" x2="-2.18556e-08" y2="666.27" stroke="#CDCDCD" stroke-width="0.5"/>
<line x1="1920" y1="672.27" x2="-2.18556e-08" y2="672.27" stroke="#CDCDCD" stroke-width="0.5"/>
<line x1="1920" y1="678.27" x2="-2.18556e-08" y2="678.27" stroke="#CDCDCD" stroke-width="0.5"/>
<line x1="1920" y1="684.27" x2="-2.18556e-08" y2="684.27" stroke="#CDCDCD" stroke-width="0.5"/>
<line x1="1920" y1="690.271" x2="-2.18556e-08" y2="690.27" stroke="#CDCDCD" stroke-width="0.5"/>
<line x1="1920" y1="696.271" x2="-2.18556e-08" y2="696.271" stroke="#CDCDCD" stroke-width="0.5"/>
<line x1="1920" y1="702.271" x2="-2.18556e-08" y2="702.271" stroke="#CDCDCD" stroke-width="0.5"/>
<line x1="1920" y1="708.271" x2="-2.18556e-08" y2="708.271" stroke="#CDCDCD" stroke-width="0.5"/>
<line x1="1920" y1="714.271" x2="-2.18556e-08" y2="714.271" stroke="#CDCDCD" stroke-width="0.5"/>
<line x1="1920" y1="720.271" x2="-2.18556e-08" y2="720.271" stroke="#CDCDCD" stroke-width="0.5"/>
<line x1="1920" y1="726.272" x2="-2.18556e-08" y2="726.272" stroke="#CDCDCD" stroke-width="0.5"/>
<line x1="1920" y1="732.272" x2="-2.18556e-08" y2="732.272" stroke="#CDCDCD" stroke-width="0.5"/>
<line x1="1920" y1="738.272" x2="-2.18556e-08" y2="738.272" stroke="#CDCDCD" stroke-width="0.5"/>
<line x1="1920" y1="744.272" x2="-2.18556e-08" y2="744.272" stroke="#CDCDCD" stroke-width="0.5"/>
<line x1="1920" y1="750.272" x2="-2.18556e-08" y2="750.272" stroke="#CDCDCD" stroke-width="0.5"/>
<line x1="1920" y1="756.273" x2="-2.18556e-08" y2="756.272" stroke="#CDCDCD" stroke-width="0.5"/>
<line x1="1920" y1="762.273" x2="-2.18556e-08" y2="762.273" stroke="#CDCDCD" stroke-width="0.5"/>
<line x1="1920" y1="768.273" x2="-2.18556e-08" y2="768.273" stroke="#CDCDCD" stroke-width="0.5"/>
<line x1="1920" y1="774.273" x2="-2.18556e-08" y2="774.273" stroke="#CDCDCD" stroke-width="0.5"/>
<line x1="1920" y1="780.273" x2="-2.18556e-08" y2="780.273" stroke="#CDCDCD" stroke-width="0.5"/>
<line x1="1920" y1="786.273" x2="-2.18556e-08" y2="786.273" stroke="#CDCDCD" stroke-width="0.5"/>
<line x1="1920" y1="792.274" x2="-2.18556e-08" y2="792.273" stroke="#CDCDCD" stroke-width="0.5"/>
<line x1="1920" y1="798.274" x2="-2.18556e-08" y2="798.274" stroke="#CDCDCD" stroke-width="0.5"/>
<line x1="1920" y1="804.274" x2="-2.18556e-08" y2="804.274" stroke="#CDCDCD" stroke-width="0.5"/>
<line x1="1920" y1="810.274" x2="-2.18556e-08" y2="810.274" stroke="#CDCDCD" stroke-width="0.5"/>
<line x1="1920" y1="816.274" x2="-2.18556e-08" y2="816.274" stroke="#CDCDCD" stroke-width="0.5"/>
<line x1="1920" y1="822.275" x2="-2.18556e-08" y2="822.274" stroke="#CDCDCD" stroke-width="0.5"/>
<line x1="1920" y1="828.275" x2="-2.18556e-08" y2="828.275" stroke="#CDCDCD" stroke-width="0.5"/>
<line x1="1920" y1="834.275" x2="-2.18556e-08" y2="834.275" stroke="#CDCDCD" stroke-width="0.5"/>
<line x1="1920" y1="840.275" x2="-2.18556e-08" y2="840.275" stroke="#CDCDCD" stroke-width="0.5"/>
<line x1="1920" y1="846.275" x2="-2.18556e-08" y2="846.275" stroke="#CDCDCD" stroke-width="0.5"/>
<line x1="1920" y1="852.276" x2="-2.18556e-08" y2="852.275" stroke="#CDCDCD" stroke-width="0.5"/>
<line x1="1920" y1="858.276" x2="-2.18556e-08" y2="858.275" stroke="#CDCDCD" stroke-width="0.5"/>
<line x1="1920" y1="864.276" x2="-2.18556e-08" y2="864.276" stroke="#CDCDCD" stroke-width="0.5"/>
<line x1="1920" y1="870.276" x2="-2.18556e-08" y2="870.276" stroke="#CDCDCD" stroke-width="0.5"/>
<line x1="1920" y1="876.276" x2="-2.18556e-08" y2="876.276" stroke="#CDCDCD" stroke-width="0.5"/>
<line x1="1920" y1="882.276" x2="-2.18556e-08" y2="882.276" stroke="#CDCDCD" stroke-width="0.5"/>
<line x1="1920" y1="888.277" x2="-2.18556e-08" y2="888.276" stroke="#CDCDCD" stroke-width="0.5"/>
<line x1="1920" y1="894.277" x2="-2.18556e-08" y2="894.277" stroke="#CDCDCD" stroke-width="0.5"/>
<line x1="1920" y1="900.277" x2="-2.18556e-08" y2="900.277" stroke="#CDCDCD" stroke-width="0.5"/>
<line x1="1920" y1="906.277" x2="-2.18556e-08" y2="906.277" stroke="#CDCDCD" stroke-width="0.5"/>
<line x1="1920" y1="912.277" x2="-2.18556e-08" y2="912.277" stroke="#CDCDCD" stroke-width="0.5"/>
<line x1="1920" y1="918.278" x2="-2.18556e-08" y2="918.277" stroke="#CDCDCD" stroke-width="0.5"/>
<line x1="1920" y1="924.278" x2="-2.18556e-08" y2="924.278" stroke="#CDCDCD" stroke-width="0.5"/>
<line x1="1920" y1="930.278" x2="-2.18556e-08" y2="930.278" stroke="#CDCDCD" stroke-width="0.5"/>
<line x1="1920" y1="936.278" x2="-2.18556e-08" y2="936.278" stroke="#CDCDCD" stroke-width="0.5"/>
<line x1="1920" y1="942.278" x2="-2.18556e-08" y2="942.278" stroke="#CDCDCD" stroke-width="0.5"/>
<line x1="1920" y1="948.278" x2="-2.18556e-08" y2="948.278" stroke="#CDCDCD" stroke-width="0.5"/>
<line x1="1920" y1="954.279" x2="-2.18556e-08" y2="954.278" stroke="#CDCDCD" stroke-width="0.5"/>
<line x1="1920" y1="960.279" x2="-2.18556e-08" y2="960.279" stroke="#CDCDCD" stroke-width="0.5"/>
<line x1="1920" y1="966.279" x2="-2.18556e-08" y2="966.279" stroke="#CDCDCD" stroke-width="0.5"/>
<line x1="1920" y1="972.279" x2="-2.18556e-08" y2="972.279" stroke="#CDCDCD" stroke-width="0.5"/>
<line x1="1920" y1="978.279" x2="-2.18556e-08" y2="978.279" stroke="#CDCDCD" stroke-width="0.5"/>
<line x1="1920" y1="984.28" x2="-2.18556e-08" y2="984.279" stroke="#CDCDCD" stroke-width="0.5"/>
<line x1="1920" y1="990.28" x2="-2.18556e-08" y2="990.28" stroke="#CDCDCD" stroke-width="0.5"/>
<line x1="1920" y1="996.28" x2="-2.18556e-08" y2="996.28" stroke="#CDCDCD" stroke-width="0.5"/>
<line x1="1920" y1="1002.28" x2="-2.18556e-08" y2="1002.28" stroke="#CDCDCD" stroke-width="0.5"/>
<line x1="1920" y1="1008.28" x2="-2.18556e-08" y2="1008.28" stroke="#CDCDCD" stroke-width="0.5"/>
<line x1="1920" y1="1014.28" x2="-2.18556e-08" y2="1014.28" stroke="#CDCDCD" stroke-width="0.5"/>
<line x1="1920" y1="1020.28" x2="-2.18556e-08" y2="1020.28" stroke="#CDCDCD" stroke-width="0.5"/>
<line x1="1920" y1="1026.28" x2="-2.18556e-08" y2="1026.28" stroke="#CDCDCD" stroke-width="0.5"/>
<line x1="1920" y1="1032.28" x2="-2.18556e-08" y2="1032.28" stroke="#CDCDCD" stroke-width="0.5"/>
<line x1="1920" y1="1038.28" x2="-2.18556e-08" y2="1038.28" stroke="#CDCDCD" stroke-width="0.5"/>
<line x1="1920" y1="1044.28" x2="-2.18556e-08" y2="1044.28" stroke="#CDCDCD" stroke-width="0.5"/>
<line x1="1920" y1="1050.28" x2="-2.18556e-08" y2="1050.28" stroke="#CDCDCD" stroke-width="0.5"/>
<line x1="1920" y1="1056.28" x2="-2.18556e-08" y2="1056.28" stroke="#CDCDCD" stroke-width="0.5"/>
<line x1="1920" y1="1062.28" x2="-2.18556e-08" y2="1062.28" stroke="#CDCDCD" stroke-width="0.5"/>
<line x1="1920" y1="1068.28" x2="-2.18556e-08" y2="1068.28" stroke="#CDCDCD" stroke-width="0.5"/>
<line x1="1920" y1="1074.28" x2="-2.18556e-08" y2="1074.28" stroke="#CDCDCD" stroke-width="0.5"/>
<line x1="1920" y1="1080.28" x2="-2.18556e-08" y2="1080.28" stroke="#CDCDCD" stroke-width="0.5"/>
</svg>
