<svg width="18" height="18" viewBox="0 0 18 18" fill="none" xmlns="http://www.w3.org/2000/svg">
<g clip-path="url(#clip0_785:2258)">
<path d="M0.5625 4.5H17.4375C17.5867 4.5 17.7298 4.44074 17.8352 4.33525C17.9407 4.22976 18 4.08668 18 3.9375C18 3.78832 17.9407 3.64524 17.8352 3.53975C17.7298 3.43426 17.5867 3.375 17.4375 3.375H0.5625C0.413316 3.375 0.270242 3.43426 0.164752 3.53975C0.0592632 3.64524 0 3.78832 0 3.9375C0 4.08668 0.0592632 4.22976 0.164752 4.33525C0.270242 4.44074 0.413316 4.5 0.5625 4.5ZM17.4375 8.4375H0.5625C0.413316 8.4375 0.270242 8.49676 0.164752 8.60225C0.0592632 8.70774 0 8.85082 0 9C0 9.14918 0.0592632 9.29226 0.164752 9.39775C0.270242 9.50324 0.413316 9.5625 0.5625 9.5625H17.4375C17.5867 9.5625 17.7298 9.50324 17.8352 9.39775C17.9407 9.29226 18 9.14918 18 9C18 8.85082 17.9407 8.70774 17.8352 8.60225C17.7298 8.49676 17.5867 8.4375 17.4375 8.4375ZM17.4375 13.5H0.5625C0.413316 13.5 0.270242 13.5593 0.164752 13.6648C0.0592632 13.7702 0 13.9133 0 14.0625C0 14.2117 0.0592632 14.3548 0.164752 14.4602C0.270242 14.5657 0.413316 14.625 0.5625 14.625H17.4375C17.5867 14.625 17.7298 14.5657 17.8352 14.4602C17.9407 14.3548 18 14.2117 18 14.0625C18 13.9133 17.9407 13.7702 17.8352 13.6648C17.7298 13.5593 17.5867 13.5 17.4375 13.5Z" fill="white"/>
</g>
<defs>
<clipPath id="clip0_785:2258">
<rect width="18" height="18" fill="white"/>
</clipPath>
</defs>
</svg>
