<svg width="19" height="20" viewBox="0 0 19 20" fill="none" xmlns="http://www.w3.org/2000/svg">
<path d="M6.7542 18.7733V15.7156C6.7542 14.9351 7.36504 14.3023 8.11854 14.3023H10.873C11.2348 14.3023 11.5818 14.4512 11.8377 14.7163C12.0936 14.9813 12.2373 15.3408 12.2373 15.7156V18.7733C12.235 19.0978 12.3579 19.4099 12.5786 19.6402C12.7993 19.8705 13.0996 20 13.4129 20H15.292C16.1697 20.0023 17.0122 19.6428 17.6336 19.0008C18.255 18.3588 18.6042 17.487 18.6042 16.5778V7.86686C18.6042 7.13246 18.2899 6.43584 17.7461 5.96467L11.3535 0.675869C10.2415 -0.251438 8.64819 -0.221498 7.56937 0.746979L1.32259 5.96467C0.753084 6.42195 0.412695 7.12064 0.395874 7.86686V16.5689C0.395874 18.4639 1.87878 20 3.70804 20H5.54432C6.19497 20 6.72375 19.4562 6.72846 18.7822L6.7542 18.7733Z" fill="#363636"/>
</svg>
