<svg width="30" height="30" viewBox="0 0 30 30" fill="none" xmlns="http://www.w3.org/2000/svg">
<g clip-path="url(#clip0_908_4215)">
<path d="M22.3043 9.91285H21.087V7.47807C21.087 4.11807 18.36 1.39111 15 1.39111C11.64 1.39111 8.91304 4.11807 8.91304 7.47807V9.91285H7.69565C6.35043 9.91285 5.26086 11.0024 5.26086 12.3476V24.5215C5.26086 25.8668 6.35043 26.9563 7.69565 26.9563H22.3043C23.6496 26.9563 24.7391 25.8668 24.7391 24.5215V12.3476C24.7391 11.0024 23.6496 9.91285 22.3043 9.91285ZM15 20.8694C13.6548 20.8694 12.5652 19.7798 12.5652 18.4346C12.5652 17.0894 13.6548 15.9998 15 15.9998C16.3452 15.9998 17.4348 17.0894 17.4348 18.4346C17.4348 19.7798 16.3452 20.8694 15 20.8694ZM18.7739 9.91285H11.2261V7.47807C11.2261 5.39633 12.9183 3.70416 15 3.70416C17.0817 3.70416 18.7739 5.39633 18.7739 7.47807V9.91285V9.91285Z" fill="white"/>
</g>
<defs>
<clipPath id="clip0_908_4215">
<rect width="29.2174" height="29.2174" fill="white" transform="translate(0.391296 0.173828)"/>
</clipPath>
</defs>
</svg>
