<svg width="13" height="13" viewBox="0 0 13 13" fill="none" xmlns="http://www.w3.org/2000/svg">
<path d="M2.23752 0.429248C1.72085 -0.0874184 0.945854 -0.0874184 0.429187 0.429248C-0.0874794 0.945915 -0.0874794 1.72091 0.429187 2.23758L4.69169 6.50008L0.429187 10.7626C0.170854 11.0209 0.041687 11.2792 0.041687 11.6667C0.041687 12.4417 0.558354 12.9584 1.33335 12.9584C1.72085 12.9584 1.97919 12.8292 2.23752 12.5709L7.40419 7.40425C7.92085 6.88758 7.92085 6.11258 7.40419 5.59591L2.23752 0.429248ZM11.6667 0.041748C10.8917 0.041748 10.375 0.558415 10.375 1.33341V11.6667C10.375 12.4417 10.8917 12.9584 11.6667 12.9584C12.4417 12.9584 12.9584 12.4417 12.9584 11.6667V1.33341C12.9584 0.558415 12.4417 0.041748 11.6667 0.041748Z" fill="white"/>
</svg>
