<svg width="15" height="15" viewBox="0 0 15 15" fill="none" xmlns="http://www.w3.org/2000/svg">
<path fill-rule="evenodd" clip-rule="evenodd" d="M7.5 15C9.48912 15 11.3968 14.2098 12.8033 12.8033C14.2098 11.3968 15 9.48912 15 7.5C15 5.51088 14.2098 3.60322 12.8033 2.1967C11.3968 0.790176 9.48912 -4.71898e-07 7.5 -2.98004e-07C5.51088 -1.24109e-07 3.60322 0.790176 2.1967 2.1967C0.790176 3.60322 1.24109e-07 5.51088 2.98003e-07 7.5C4.71898e-07 9.48912 0.790177 11.3968 2.1967 12.8033C3.60322 14.2098 5.51088 15 7.5 15V15ZM3.38203 11.6063L4.23164 9.05625L8.10703 5.20078L8.11172 5.19492L8.10937 5.19492L8.91094 4.39219C9.03855 4.26457 9.20864 4.20117 9.37852 4.20117C9.54839 4.20117 9.71848 4.26457 9.84609 4.39219L10.609 5.15508C10.8642 5.41032 10.8642 5.83499 10.609 6.09023L9.80625 6.8918L9.80156 6.88594L5.93086 10.7566L3.38203 11.6063ZM4.33125 10.657L5.40117 10.3008L4.6875 9.58711L4.33125 10.657ZM5.89336 9.94453L9.16875 6.67031L8.32031 5.83477L5.04492 9.09609L5.89336 9.94453ZM9.59648 6.25195L10.1836 5.66484C10.2112 5.63754 10.2112 5.60572 10.1836 5.57813L9.42187 4.81523C9.39432 4.78763 9.36271 4.78763 9.33516 4.81523L8.74219 5.40937L9.59648 6.25195Z" fill="#231F20"/>
</svg>
