<svg width="20" height="24" viewBox="0 0 20 24" fill="none" xmlns="http://www.w3.org/2000/svg">
<path d="M8.75005 21.3875V23.9125C3.81255 23.3 4.95911e-05 19.1 4.95911e-05 14C4.95911e-05 8.9 3.81255 4.7 8.75005 4.0875V0.25L14.4376 5.9375L8.75005 11.5V6.6125C5.20005 7.2125 2.50005 10.2875 2.50005 14C2.50005 17.7125 5.20005 20.7875 8.75005 21.3875ZM17.8876 20.1125L16.1251 18.3375C16.7751 17.4 17.2126 16.35 17.3876 15.25H19.9126C19.7001 16.9875 19.0126 18.6625 17.8876 20.1125ZM16.1126 9.6625L17.8751 7.8875C19.0001 9.3375 19.7001 11.0125 19.9126 12.75H17.3876C17.2126 11.6625 16.7751 10.6 16.1126 9.6625ZM11.2501 21.375C12.3376 21.1875 13.3876 20.7625 14.3251 20.0875L16.1251 21.9C14.6751 23.025 12.9876 23.7 11.2501 23.9125V21.375Z" fill="#363636"/>
</svg>
