<?xml version="1.0" encoding="utf-8"?>
<!-- Generator: Adobe Illustrator 26.0.2, SVG Export Plug-In . SVG Version: 6.00 Build 0)  -->
<svg version="1.1" id="Layer_1" xmlns="http://www.w3.org/2000/svg" xmlns:xlink="http://www.w3.org/1999/xlink" x="0px" y="0px"
	 viewBox="0 0 64 64" style="enable-background:new 0 0 64 64;" xml:space="preserve">
<style type="text/css">
	.st0{fill:#5AAD26;}
	.st1{fill:#FFFFFF;}
</style>
<rect x="0" class="st0" width="64" height="64"/>
<path class="st1" d="M14.88,51.62c-1.71-2-3.03-4.24-3.97-6.72S9.5,39.79,9.5,37c0-6.25,2.19-11.55,6.56-15.91s9.69-6.53,15.94-6.53
	c0.42,0,0.84,0.01,1.28,0.03s0.82,0.05,1.16,0.09l-5.06-5.06L32,7l10,10L32,27l-2.69-2.69l5.75-5.75c-0.46-0.08-1-0.15-1.62-0.19
	s-1.1-0.06-1.44-0.06c-5.21,0-9.64,1.81-13.28,5.44S13.25,31.79,13.25,37c0,2.12,0.35,4.25,1.06,6.38s1.79,3.98,3.25,5.56
	L14.88,51.62z M29.62,51.38c0-0.88-0.31-1.77-0.94-2.69c-0.62-0.92-1.3-1.85-2.03-2.81s-1.41-1.97-2.03-3.03s-0.94-2.18-0.94-3.34
	c0-2.29,0.81-4.25,2.44-5.88s3.58-2.44,5.88-2.44s4.25,0.81,5.88,2.44s2.44,3.58,2.44,5.88c0,1.17-0.31,2.28-0.94,3.34
	s-1.3,2.07-2.03,3.03s-1.41,1.9-2.03,2.81c-0.62,0.92-0.94,1.81-0.94,2.69H29.62z M29.5,57v-3.12h5V57H29.5z M49.12,51.62L46.5,49
	c1.25-1.5,2.27-3.27,3.06-5.31s1.19-4.27,1.19-6.69c0-2.75-0.57-5.36-1.72-7.84s-2.86-4.66-5.16-6.53l2.75-2.75
	c2.42,2.08,4.33,4.59,5.75,7.53S54.5,33.54,54.5,37c0,2.79-0.47,5.43-1.41,7.91S50.83,49.62,49.12,51.62z"/>
</svg>
