<svg width="14" height="14" viewBox="0 0 14 14" fill="none" xmlns="http://www.w3.org/2000/svg">
<g clip-path="url(#clip0_785:2520)">
<path d="M737.576 337.442C737.492 337.442 737.436 337.498 737.436 337.582C737.436 337.666 737.492 337.722 737.576 337.722H738.178C738.262 337.722 738.318 337.666 738.318 337.582C738.318 337.498 738.262 337.442 738.178 337.442H737.576ZM738.178 337.918H737.576C737.492 337.918 737.436 337.974 737.436 338.058C737.436 338.142 737.492 338.198 737.576 338.198H738.178C738.262 338.198 738.318 338.142 738.318 338.058C738.318 337.974 738.262 337.918 738.178 337.918ZM738.178 338.38H737.576C737.492 338.38 737.436 338.436 737.436 338.52C737.436 338.604 737.492 338.66 737.576 338.66H738.178C738.262 338.66 738.318 338.604 738.318 338.52C738.318 338.45 738.262 338.38 738.178 338.38ZM13.244 3.62585L10.318 0.699853C10.094 0.475854 9.78601 0.349854 9.47801 0.349854H8.12001V2.79985C8.12001 3.05185 7.91001 3.26185 7.65801 3.26185H3.82201C3.57001 3.26185 3.36001 3.05185 3.36001 2.79985V0.349854H1.59601C0.938006 0.349854 0.406006 0.881853 0.406006 1.53985V12.4599C0.406006 13.1179 0.938006 13.6499 1.59601 13.6499H12.418C13.076 13.6499 13.608 13.1179 13.608 12.4599V4.46585C13.594 4.15785 13.468 3.84985 13.244 3.62585ZM10.766 10.9479C10.766 11.1999 10.556 11.4099 10.304 11.4099H3.68201C3.43001 11.4099 3.22001 11.1999 3.22001 10.9479V6.35585C3.22001 6.10385 3.43001 5.89385 3.68201 5.89385H10.318C10.57 5.89385 10.78 6.10385 10.78 6.35585V10.9479H10.766Z" fill="white"/>
<path d="M6.188 2.47785H7.084C7.182 2.47785 7.266 2.39385 7.266 2.29585V0.531854C7.266 0.433854 7.182 0.349854 7.084 0.349854H6.188C6.09 0.349854 6.006 0.433854 6.006 0.531854V2.28185C6.006 2.39385 6.09 2.47785 6.188 2.47785ZM8.946 7.18185H5.054C4.788 7.18185 4.564 7.39185 4.564 7.67185C4.564 7.93785 4.774 8.16185 5.054 8.16185H8.932C9.198 8.16185 9.422 7.95185 9.422 7.67185C9.422 7.39185 9.212 7.18185 8.946 7.18185ZM8.946 9.16985H5.054C4.788 9.16985 4.564 9.37985 4.564 9.65985C4.564 9.92585 4.774 10.1499 5.054 10.1499H8.932C9.198 10.1499 9.422 9.93985 9.422 9.65985C9.422 9.39385 9.212 9.16985 8.946 9.16985Z" fill="white"/>
</g>
<defs>
<clipPath id="clip0_785:2520">
<rect width="14" height="14" fill="white"/>
</clipPath>
</defs>
</svg>
